<?xml version="1.0" encoding="UTF-8"?>
<!DOCTYPE svg PUBLIC "-//W3C//DTD SVG 1.1//EN" "http://www.w3.org/Graphics/SVG/1.1/DTD/svg11.dtd">
<!-- Creator: CorelDRAW -->
<svg xmlns="http://www.w3.org/2000/svg" xml:space="preserve" width="508mm" height="285.75mm" version="1.1" style="shape-rendering:geometricPrecision; text-rendering:geometricPrecision; image-rendering:optimizeQuality; fill-rule:evenodd; clip-rule:evenodd"
viewBox="0 0 50799.98 28574.98"
 xmlns:xlink="http://www.w3.org/1999/xlink"
 xmlns:xodm="http://www.corel.com/coreldraw/odm/2003">
 <defs>
  <style type="text/css">
   <![CDATA[
    .fil0 {fill:black}
    .fil2 {fill:#00CCFF;fill-rule:nonzero;fill-opacity:0.278431}
    .fil3 {fill:white;fill-rule:nonzero;fill-opacity:0.278431}
    .fil1 {fill:url(#id0)}
   ]]>
  </style>
  <linearGradient id="id0" gradientUnits="userSpaceOnUse" x1="-2656.91" y1="6589.8" x2="6224.03" y2="18070.64">
   <stop offset="0" style="stop-opacity:1; stop-color:#42AD4E"/>
   <stop offset="0.458824" style="stop-opacity:1; stop-color:#21BCA6"/>
   <stop offset="1" style="stop-opacity:1; stop-color:#00CCFF"/>
  </linearGradient>
 </defs>
 <g id="Capa_x0020_1">
  <metadata id="CorelCorpID_0Corel-Layer"/>
  <rect class="fil0" x="-0.02" y="-0.01" width="50799.99" height="28575"/>
  <path class="fil1" d="M3588.72 6183.74c-149.01,-274.15 -89.86,-624.23 158.42,-832.56 283.43,-237.83 705.99,-200.86 943.82,82.57 237.82,283.43 200.85,705.99 -82.58,943.82 -248.28,208.33 -603.31,205.79 -847.42,11.44l-3760.97 3155.83 0 -349.8 3588.73 -3011.3zm-803.91 7949.72c-149,-274.15 -89.85,-624.22 158.42,-832.55 283.43,-237.83 706,-200.86 943.82,82.57 237.83,283.43 200.86,705.99 -82.57,943.82 -248.28,208.32 -603.31,205.79 -847.42,11.44l-2957.07 2481.28 0 -349.82 2784.82 -2336.74zm330.67 -627.28c170.06,-142.69 423.6,-120.52 566.3,49.54 142.69,170.06 120.51,423.6 -49.55,566.3 -170.06,142.7 -423.6,120.52 -566.29,-49.54 -142.7,-170.06 -120.52,-423.6 49.54,-566.3zm2349.01 -3481.57c-149,-274.14 -89.85,-624.22 158.42,-832.55 283.43,-237.83 706,-200.86 943.82,82.57 237.83,283.43 200.86,705.99 -82.57,943.82 -248.28,208.33 -603.31,205.79 -847.42,11.44l-5636.75 4729.8 0 -349.81 5464.5 -4585.27zm330.67 -627.27c170.06,-142.7 423.6,-120.52 566.3,49.54 142.7,170.06 120.51,423.6 -49.55,566.3 -170.06,142.69 -423.6,120.51 -566.29,-49.55 -142.7,-170.06 -120.52,-423.6 49.54,-566.29zm1009.17 -4196.15c-149,-274.15 -89.85,-624.23 158.42,-832.56 283.43,-237.83 706,-200.85 943.82,82.58 237.83,283.42 200.86,705.99 -82.57,943.81 -248.28,208.33 -603.31,205.79 -847.42,11.44l-6976.59 5854.07 0 -349.82 6804.34 -5709.52zm330.68 -627.28c170.05,-142.7 423.59,-120.52 566.29,49.54 142.7,170.06 120.51,423.6 -49.55,566.3 -170.06,142.69 -423.6,120.51 -566.29,-49.55 -142.7,-170.06 -120.51,-423.59 49.55,-566.29zm-3546.29 5182.73c-149.01,-274.14 -89.86,-624.22 158.42,-832.55 283.43,-237.83 705.99,-200.85 943.82,82.58 237.82,283.42 200.85,705.99 -82.58,943.81 -248.28,208.33 -603.31,205.79 -847.42,11.44l-3760.97 3155.84 0 -349.81 3588.73 -3011.31zm330.67 -627.27c170.05,-142.7 423.59,-120.52 566.29,49.54 142.7,170.06 120.51,423.6 -49.55,566.3 -170.06,142.69 -423.6,120.51 -566.29,-49.55 -142.7,-170.06 -120.51,-423.6 49.55,-566.29zm-0.01 -3572.91c170.06,-142.7 423.61,-120.52 566.3,49.54 142.7,170.06 120.51,423.6 -49.55,566.3 -170.06,142.69 -423.59,120.51 -566.29,-49.55 -142.69,-170.06 -120.51,-423.6 49.54,-566.29z"/>
  <g id="_1474018577632">
   <path class="fil2" d="M20557.35 13784.73l-170.68 0 0 1005.53 -278.12 0 0 -1005.53 -349.34 0 0 -64.54c2.91,-107.23 63.14,-160.93 180.71,-161.12l798.14 0 0 64.54c-2.9,107.24 -63.14,160.94 -180.71,161.12zm3439.98 1026.92c-146.53,0 -261.7,-41.02 -345.52,-123.09 -83.82,-82.05 -125.73,-193.71 -125.73,-334.39 0,-145.36 43.37,-259.36 130.41,-341.42 87.05,-82.07 204.86,-123.09 352.86,-123.09 145.95,0 260.54,41.02 343.48,123.09 82.94,82.06 124.56,190.78 124.56,325.89 0,145.95 -42.79,261.42 -128.37,346.11 -85.57,84.7 -202.8,126.9 -351.69,126.9zm7.04 -714.21c-64.19,0 -114,21.99 -149.46,65.94 -35.47,44.26 -53.34,106.68 -53.34,187.28 0,168.81 68.28,253.21 204.56,253.21 129.83,0 194.89,-86.75 194.89,-259.95 0,-164.41 -65.65,-246.48 -196.65,-246.48zm-640.66 692.82l-270.5 0 0 -488.54c0,-136.28 -48.66,-204.28 -145.95,-204.28 -46.89,0 -85.58,17.88 -115.77,53.93 -30.48,36.05 -45.71,82.06 -45.71,137.45l0 501.44 -271.1 0 0 -879.21 271.1 0 0 139.21 3.51 0c64.77,-107.26 158.84,-160.6 282.53,-160.6 194.59,0 291.89,120.74 291.89,362.23l0 538.37zm-1026.93 -31.65c-61.25,35.46 -149.75,53.04 -265.23,53.04 -135.1,0 -244.42,-40.73 -327.95,-122.79 -83.52,-81.77 -125.43,-187.27 -125.43,-316.81 0,-149.47 44.84,-266.99 134.23,-353.15 89.68,-86.16 209.54,-129.24 359.6,-129.24 103.45,0 178.48,13.77 224.78,41.02l0 230.36c-56.56,-42.5 -119.86,-63.6 -189.62,-63.6 -77.95,0 -139.49,22.57 -185.22,68.29 -45.42,45.43 -68.28,108.14 -68.28,188.44 0,77.67 21.98,138.92 65.35,183.17 43.38,44.55 103.46,66.53 179.36,66.53 67.7,0 133.65,-21.1 198.41,-63.59l0 218.33zm-827.64 -330.58l-573.53 0c9.08,127.48 89.68,191.37 241.19,191.37 96.71,0 181.71,-22.86 254.98,-68.58l0 195.77c-81.19,43.38 -186.69,65.06 -316.81,65.06 -141.85,0 -252.05,-39.27 -330.59,-118.1 -78.26,-78.54 -117.52,-188.45 -117.52,-329.12 0,-145.95 42.2,-261.71 127.19,-347 84.69,-85.28 188.74,-127.77 312.41,-127.77 128.08,0 227.43,38.09 297.47,114 70.05,76.2 105.21,179.65 105.21,310.07l0 114.3zm-251.45 -166.76c0,-125.73 -50.99,-188.74 -152.99,-188.74 -43.37,0 -81.17,17.88 -112.83,53.93 -31.94,36.05 -50.99,81.18 -58.03,134.81l323.85 0z"/>
   <path class="fil3" d="M25848.8 13784.73l-170.68 0 0 1005.53 -278.13 0 0 -1005.53 -349.34 0 0 -64.54c2.92,-107.23 63.16,-160.93 180.72,-161.12l798.15 0 0 64.54c-2.91,107.24 -63.15,160.94 -180.72,161.12zm4655.34 1005.53l-256.73 0 0 -126.31 -3.52 0c-58.91,98.47 -146.24,147.7 -262.01,147.7 -85.28,0 -152.4,-24.02 -201.34,-72.38 -48.94,-48.36 -73.27,-113.13 -73.27,-193.72 0,-170.57 101.11,-269.04 303.04,-295.42l238.85 -31.65c0,-96.12 -52.16,-144.19 -156.49,-144.19 -104.63,0 -204.28,31.07 -298.65,93.49l0 -204.27c37.81,-19.63 89.39,-36.63 155.03,-51.58 65.36,-14.95 125.15,-22.27 179.08,-22.27 250.57,0 376.01,125.14 376.01,375.12l0 525.48zm-254.98 -357.25l0 -59.2 -159.72 20.52c-88.22,11.42 -132.18,51.28 -132.18,119.57 0,30.77 10.55,56.26 31.95,75.9 21.69,19.64 50.7,29.6 87.33,29.6 51,0 92.32,-17.59 124.56,-52.75 31.94,-35.17 48.06,-79.71 48.06,-133.64zm-705.12 357.25l-271.39 0 0 -121.03 -3.23 0c-61.84,94.95 -152.68,142.42 -272.26,142.42 -109.9,0 -198.41,-38.68 -265.24,-116.34 -67.1,-77.37 -100.52,-185.82 -100.52,-325.02 0,-145.36 36.93,-261.71 110.79,-349.34 73.85,-87.63 170.57,-131.29 290.14,-131.29 113.41,0 192.26,40.44 237.09,121.91l3.23 0 0 -361.71c2.91,-107.24 63.15,-160.94 180.71,-161.13l90.68 0 0 1301.53zm-266.12 -427.59l0 -66.23c0,-57.15 -16.71,-104.63 -49.82,-142.44 -33.11,-37.8 -76.49,-56.56 -129.54,-56.56 -60.08,0 -107.26,23.45 -140.97,70.63 -33.7,47.48 -50.7,112.25 -50.7,194.6 0,77.37 16.41,136.86 48.95,178.48 32.82,41.91 77.95,62.72 135.69,62.72 55.09,0 99.93,-21.98 134.51,-65.94 34.59,-44.25 51.88,-102.58 51.88,-175.26zm-808.88 427.59l-270.5 0 0 -488.54c0,-136.28 -48.66,-204.28 -145.95,-204.28 -46.9,0 -85.58,17.88 -115.77,53.93 -30.48,36.05 -45.72,82.06 -45.72,137.45l0 501.44 -271.09 0 0 -879.21 271.09 0 0 139.21 3.52 0c64.77,-107.26 158.84,-160.6 282.52,-160.6 194.6,0 291.9,120.74 291.9,362.23l0 538.37zm-1010.52 -362.23l-573.53 0c9.08,127.48 89.68,191.37 241.19,191.37 96.71,0 181.71,-22.86 254.98,-68.58l0 195.77c-81.19,43.38 -186.69,65.06 -316.81,65.06 -141.85,0 -252.05,-39.27 -330.59,-118.1 -78.26,-78.54 -117.52,-188.45 -117.52,-329.12 0,-145.95 42.2,-261.71 127.19,-347 84.69,-85.28 188.74,-127.77 312.41,-127.77 128.08,0 227.43,38.09 297.47,114 70.05,76.2 105.21,179.65 105.21,310.07l0 114.3zm-251.45 -166.76c0,-125.73 -50.99,-188.74 -152.99,-188.74 -43.37,0 -81.17,17.88 -112.83,53.93 -31.94,36.05 -50.99,81.18 -58.03,134.81l323.85 0zm-900.9 -489.43c-45.72,0 -83.23,-13.48 -112.25,-40.73 -29.3,-27.26 -43.96,-60.38 -43.96,-99.94 0,-40.74 14.66,-73.85 43.96,-99.65 29.02,-25.79 66.53,-38.68 112.25,-38.68 46.6,0 84.11,12.89 113.12,38.68 28.72,25.8 43.38,58.91 43.38,99.65 0,41.02 -14.66,75.03 -43.38,101.4 -29.01,26.08 -66.52,39.27 -113.12,39.27zm133.93 1018.42l-271.09 0 0 -879.21 271.09 0 0 879.21z"/>
  </g>
 </g>
</svg>
