<?xml version="1.0" encoding="UTF-8"?>
<!DOCTYPE svg PUBLIC "-//W3C//DTD SVG 1.1//EN" "http://www.w3.org/Graphics/SVG/1.1/DTD/svg11.dtd">
<!-- Creator: CorelDRAW -->
<svg xmlns="http://www.w3.org/2000/svg" xml:space="preserve" width="7.1966mm" height="8.4666mm" version="1.1" style="shape-rendering:geometricPrecision; text-rendering:geometricPrecision; image-rendering:optimizeQuality; fill-rule:evenodd; clip-rule:evenodd"
viewBox="0 0 719.66 846.66"
 xmlns:xlink="http://www.w3.org/1999/xlink"
 xmlns:xodm="http://www.corel.com/coreldraw/odm/2003">
 <defs>
  <style type="text/css">
   <![CDATA[
    .fil0 {fill:url(#id0)}
   ]]>
  </style>
  <linearGradient id="id0" gradientUnits="userSpaceOnUse" x1="106.03" y1="129.99" x2="605.14" y2="716.69">
   <stop offset="0" style="stop-opacity:1; stop-color:#42AD4E"/>
   <stop offset="0.458824" style="stop-opacity:1; stop-color:#21BCA6"/>
   <stop offset="1" style="stop-opacity:1; stop-color:#00CCFF"/>
  </linearGradient>
 </defs>
 <g id="Capa_x0020_1">
  <metadata id="CorelCorpID_0Corel-Layer"/>
  <path class="fil0" d="M708.52 838.2l-85.46 -608.27 -535.38 0 -40.73 289.88 138.11 -115.89c-3.85,-7.64 -5.37,-16.08 -4.65,-24.32 1.01,-11.55 6.43,-22.72 16.01,-30.76 9.58,-8.04 21.52,-11.44 33.07,-10.43 11.55,1.01 22.72,6.43 30.76,16.01 8.04,9.58 11.44,21.52 10.43,33.07 -1.01,11.56 -6.43,22.72 -16.01,30.77 -9.58,8.04 -21.52,11.43 -33.08,10.42 -8.24,-0.72 -16.29,-3.68 -23.14,-8.81l-155.83 130.76 -17.97 127.91 344.55 -289.11c-3.85,-7.65 -5.38,-16.09 -4.65,-24.33 1.01,-11.55 6.42,-22.72 16.01,-30.76 9.58,-8.04 21.52,-11.44 33.07,-10.43 11.55,1.02 22.72,6.43 30.76,16.02 8.04,9.58 11.44,21.52 10.43,33.07 -1.01,11.55 -6.43,22.72 -16.01,30.76 -9.59,8.04 -21.53,11.44 -33.08,10.43 -8.24,-0.72 -16.29,-3.69 -23.14,-8.81l-362.27 303.97 -17.66 125.68 320.3 -268.76c-3.85,-7.64 -5.37,-16.08 -4.65,-24.32 1.01,-11.56 6.43,-22.72 16.01,-30.77 9.58,-8.04 21.52,-11.43 33.07,-10.42 11.56,1.01 22.72,6.43 30.76,16.01 8.05,9.58 11.44,21.52 10.43,33.07 -1.01,11.55 -6.43,22.72 -16.01,30.76 -9.58,8.05 -21.52,11.44 -33.07,10.43 -8.25,-0.72 -16.3,-3.69 -23.15,-8.81l-305.06 255.98 136.87 0 341.14 -286.25c-3.85,-7.65 -5.37,-16.09 -4.65,-24.33 1.01,-11.55 6.43,-22.72 16.01,-30.76 9.58,-8.04 21.52,-11.44 33.07,-10.43 11.56,1.01 22.72,6.43 30.76,16.01 8.04,9.59 11.44,21.53 10.43,33.08 -1.01,11.55 -6.43,22.72 -16.01,30.76 -9.58,8.04 -21.52,11.44 -33.07,10.43 -8.25,-0.73 -16.3,-3.69 -23.15,-8.81l-322.13 270.3 138.65 0 126.95 -106.53c-3.85,-7.64 -5.37,-16.08 -4.65,-24.33 1.01,-11.55 6.43,-22.72 16.01,-30.76 9.58,-8.04 21.52,-11.43 33.07,-10.42 11.56,1.01 22.72,6.42 30.76,16.01 8.05,9.58 11.44,21.52 10.43,33.07 -1.01,11.55 -6.43,22.72 -16.01,30.76 -9.58,8.04 -21.52,11.44 -33.07,10.43 -8.25,-0.72 -16.3,-3.69 -23.15,-8.81l-107.95 90.58 336.92 0zm-353.15 -829.73c49.98,0 95.24,20.26 128,53.02 32.76,32.76 53.02,78.02 53.02,128 0,9 -0.66,17.85 -1.93,26.51l-27.51 0c1.5,-8.62 2.28,-17.47 2.28,-26.51 0,-42.49 -17.22,-80.95 -45.07,-108.8 -27.84,-27.84 -66.31,-45.06 -108.79,-45.06 -42.49,0 -80.96,17.22 -108.8,45.06 -27.84,27.85 -45.06,66.31 -45.06,108.8 0,9.04 0.78,17.89 2.27,26.51l-27.5 0c-1.27,-8.66 -1.93,-17.51 -1.93,-26.51 0,-49.98 20.26,-95.24 53.02,-128 32.76,-32.76 78.01,-53.02 128,-53.02zm-167.5 257.62c10.03,0 18.16,8.14 18.16,18.17 0,10.03 -8.13,18.16 -18.16,18.16 -10.03,0 -18.16,-8.13 -18.16,-18.16 0,-10.03 8.13,-18.17 18.16,-18.17zm335 0c10.03,0 18.16,8.14 18.16,18.17 0,10.03 -8.13,18.16 -18.16,18.16 -10.04,0 -18.17,-8.13 -18.17,-18.16 0,-10.03 8.13,-18.17 18.17,-18.17zm-295.19 93.06c-6.24,-0.54 -12.7,1.29 -17.88,5.64 -5.18,4.34 -8.11,10.38 -8.65,16.62 -0.55,6.24 1.29,12.7 5.64,17.88 4.34,5.18 10.38,8.1 16.62,8.65 6.24,0.55 12.69,-1.29 17.87,-5.64 5.18,-4.34 8.11,-10.38 8.66,-16.62 0.54,-6.24 -1.29,-12.69 -5.64,-17.87 -4.35,-5.18 -10.38,-8.11 -16.62,-8.66zm184.14 -14.49c-6.24,-0.55 -12.7,1.29 -17.88,5.63 -5.18,4.35 -8.11,10.39 -8.65,16.63 -0.55,6.24 1.29,12.69 5.63,17.87 4.35,5.18 10.39,8.11 16.63,8.65 6.24,0.55 12.69,-1.29 17.87,-5.63 5.18,-4.35 8.11,-10.39 8.66,-16.63 0.54,-6.23 -1.29,-12.69 -5.64,-17.87 -4.35,-5.18 -10.38,-8.11 -16.62,-8.65zm-46.24 176.84c-6.24,-0.55 -12.69,1.29 -17.87,5.64 -5.19,4.34 -8.11,10.38 -8.66,16.62 -0.55,6.24 1.29,12.69 5.64,17.87 4.34,5.18 10.38,8.11 16.62,8.66 6.24,0.54 12.69,-1.29 17.87,-5.64 5.19,-4.34 8.11,-10.38 8.66,-16.62 0.55,-6.24 -1.29,-12.7 -5.64,-17.88 -4.34,-5.18 -10.38,-8.1 -16.62,-8.65zm186.34 -14.32c-6.24,-0.55 -12.7,1.28 -17.88,5.63 -5.18,4.35 -8.1,10.39 -8.65,16.63 -0.55,6.24 1.29,12.69 5.64,17.87 4.34,5.18 10.38,8.11 16.62,8.65 6.24,0.55 12.69,-1.29 17.87,-5.63 5.18,-4.35 8.11,-10.39 8.66,-16.63 0.55,-6.24 -1.29,-12.69 -5.64,-17.87 -4.34,-5.18 -10.38,-8.11 -16.62,-8.65zm-43.14 179.72c-6.24,-0.55 -12.7,1.29 -17.87,5.63 -5.19,4.35 -8.11,10.39 -8.66,16.63 -0.55,6.24 1.29,12.69 5.64,17.87 4.34,5.18 10.38,8.11 16.62,8.66 6.24,0.54 12.69,-1.29 17.87,-5.64 5.18,-4.35 8.11,-10.38 8.66,-16.62 0.55,-6.24 -1.29,-12.7 -5.64,-17.88 -4.34,-5.18 -10.38,-8.11 -16.62,-8.65z"/>
 </g>
</svg>
