<?xml version="1.0" encoding="UTF-8"?>
<!DOCTYPE svg PUBLIC "-//W3C//DTD SVG 1.1//EN" "http://www.w3.org/Graphics/SVG/1.1/DTD/svg11.dtd">
<!-- Creator: CorelDRAW -->
<svg xmlns="http://www.w3.org/2000/svg" xml:space="preserve" width="7.6198mm" height="7.6198mm" version="1.1" style="shape-rendering:geometricPrecision; text-rendering:geometricPrecision; image-rendering:optimizeQuality; fill-rule:evenodd; clip-rule:evenodd"
viewBox="0 0 761.98 761.98"
 xmlns:xlink="http://www.w3.org/1999/xlink"
 xmlns:xodm="http://www.corel.com/coreldraw/odm/2003">
 <defs>
  <style type="text/css">
   <![CDATA[
    .fil0 {fill:none}
    .fil1 {fill:#00CCFF}
   ]]>
  </style>
   <mask id="id0">
    <path fill="white" d="M388.61 413.89 L358.7 965.94 L365.5 966.26 L388.61 413.89"/>
    <path fill="#7C7C7D" d="M388.61 413.89 L418.52 -138.16 L411.72 -138.48 L388.61 413.89"/>
    <path fill="#FEFEFE" d="M388.61 413.89 L365.5 966.26 L372.31 966.51 L388.61 413.89"/>
    <path fill="#7C7C7D" d="M388.61 413.89 L411.72 -138.48 L404.91 -138.73 L388.61 413.89"/>
    <path fill="#FEFEFE" d="M388.61 413.89 L372.31 966.51 L379.12 966.66 L388.61 413.89"/>
    <path fill="#7D7D7E" d="M388.61 413.89 L404.91 -138.73 L398.1 -138.88 L388.61 413.89"/>
    <path fill="#FDFDFD" d="M388.61 413.89 L379.12 966.66 L385.93 966.74 L388.61 413.89"/>
    <path fill="#7D7D7E" d="M388.61 413.89 L398.1 -138.88 L391.29 -138.96 L388.61 413.89"/>
    <path fill="#FDFDFD" d="M388.61 413.89 L385.93 966.74 L392.73 966.73 L388.61 413.89"/>
    <path fill="#7E7E7F" d="M388.61 413.89 L391.29 -138.96 L384.49 -138.95 L388.61 413.89"/>
    <path fill="#FCFCFC" d="M388.61 413.89 L392.73 966.73 L399.54 966.64 L388.61 413.89"/>
    <path fill="#7E7E7F" d="M388.61 413.89 L384.49 -138.95 L377.68 -138.86 L388.61 413.89"/>
    <path fill="#FBFBFB" d="M388.61 413.89 L399.54 966.64 L406.35 966.46 L388.61 413.89"/>
    <path fill="#7F7F80" d="M388.61 413.89 L377.68 -138.86 L370.87 -138.68 L388.61 413.89"/>
    <path fill="#FBFBFB" d="M388.61 413.89 L406.35 966.46 L413.16 966.2 L388.61 413.89"/>
    <path fill="#7F7F80" d="M388.61 413.89 L370.87 -138.68 L364.06 -138.42 L388.61 413.89"/>
    <path fill="#FAFAFA" d="M388.61 413.89 L413.16 966.2 L419.96 965.86 L388.61 413.89"/>
    <path fill="#808081" d="M388.61 413.89 L364.06 -138.42 L357.26 -138.08 L388.61 413.89"/>
    <path fill="#F9F9FA" d="M388.61 413.89 L419.96 965.86 L426.76 965.43 L388.61 413.89"/>
    <path fill="#808081" d="M388.61 413.89 L357.26 -138.08 L350.46 -137.65 L388.61 413.89"/>
    <path fill="#F9F9F9" d="M388.61 413.89 L426.76 965.43 L433.55 964.92 L388.61 413.89"/>
    <path fill="#808081" d="M388.61 413.89 L350.46 -137.65 L343.67 -137.14 L388.61 413.89"/>
    <path fill="#F8F8F8" d="M388.61 413.89 L433.55 964.92 L440.33 964.32 L388.61 413.89"/>
    <path fill="#818182" d="M388.61 413.89 L343.67 -137.14 L336.89 -136.54 L388.61 413.89"/>
    <path fill="#F8F8F8" d="M388.61 413.89 L440.33 964.32 L447.11 963.64 L388.61 413.89"/>
    <path fill="#818182" d="M388.61 413.89 L336.89 -136.54 L330.11 -135.86 L388.61 413.89"/>
    <path fill="#F7F7F7" d="M388.61 413.89 L447.11 963.64 L453.88 962.88 L388.61 413.89"/>
    <path fill="#828283" d="M388.61 413.89 L330.11 -135.86 L323.34 -135.1 L388.61 413.89"/>
    <path fill="#F6F6F7" d="M388.61 413.89 L453.88 962.88 L460.64 962.03 L388.61 413.89"/>
    <path fill="#828283" d="M388.61 413.89 L323.34 -135.1 L316.58 -134.25 L388.61 413.89"/>
    <path fill="#F6F6F6" d="M388.61 413.89 L460.64 962.03 L467.39 961.1 L388.61 413.89"/>
    <path fill="#838384" d="M388.61 413.89 L316.58 -134.25 L309.83 -133.32 L388.61 413.89"/>
    <path fill="whitesmoke" d="M388.61 413.89 L467.39 961.1 L474.12 960.09 L388.61 413.89"/>
    <path fill="#838384" d="M388.61 413.89 L309.83 -133.32 L303.1 -132.31 L388.61 413.89"/>
    <path fill="whitesmoke" d="M388.61 413.89 L474.12 960.09 L480.84 959 L388.61 413.89"/>
    <path fill="#848484" d="M388.61 413.89 L303.1 -132.31 L296.38 -131.22 L388.61 413.89"/>
    <path fill="#F4F4F4" d="M388.61 413.89 L480.84 959 L487.55 957.82 L388.61 413.89"/>
    <path fill="#848485" d="M388.61 413.89 L296.38 -131.22 L289.67 -130.04 L388.61 413.89"/>
    <path fill="#F3F3F3" d="M388.61 413.89 L487.55 957.82 L494.25 956.56 L388.61 413.89"/>
    <path fill="#848485" d="M388.61 413.89 L289.67 -130.04 L282.97 -128.78 L388.61 413.89"/>
    <path fill="#F3F3F3" d="M388.61 413.89 L494.25 956.56 L500.92 955.22 L388.61 413.89"/>
    <path fill="#858586" d="M388.61 413.89 L282.97 -128.78 L276.3 -127.44 L388.61 413.89"/>
    <path fill="#F2F2F2" d="M388.61 413.89 L500.92 955.22 L507.58 953.79 L388.61 413.89"/>
    <path fill="#858586" d="M388.61 413.89 L276.3 -127.44 L269.64 -126.01 L388.61 413.89"/>
    <path fill="#F2F2F2" d="M388.61 413.89 L507.58 953.79 L514.23 952.28 L388.61 413.89"/>
    <path fill="#868687" d="M388.61 413.89 L269.64 -126.01 L262.99 -124.5 L388.61 413.89"/>
    <path fill="#F1F1F1" d="M388.61 413.89 L514.23 952.28 L520.85 950.7 L388.61 413.89"/>
    <path fill="#868687" d="M388.61 413.89 L262.99 -124.5 L256.37 -122.92 L388.61 413.89"/>
    <path fill="#F0F0F0" d="M388.61 413.89 L520.85 950.7 L527.45 949.03 L388.61 413.89"/>
    <path fill="#878788" d="M388.61 413.89 L256.37 -122.92 L249.77 -121.25 L388.61 413.89"/>
    <path fill="#F0F0F0" d="M388.61 413.89 L527.45 949.03 L534.04 947.27 L388.61 413.89"/>
    <path fill="#878788" d="M388.61 413.89 L249.77 -121.25 L243.18 -119.49 L388.61 413.89"/>
    <path fill="#EFEFEF" d="M388.61 413.89 L534.04 947.27 L540.6 945.44 L388.61 413.89"/>
    <path fill="#888888" d="M388.61 413.89 L243.18 -119.49 L236.62 -117.66 L388.61 413.89"/>
    <path fill="#EEEEEF" d="M388.61 413.89 L540.6 945.44 L547.13 943.53 L388.61 413.89"/>
    <path fill="#888889" d="M388.61 413.89 L236.62 -117.66 L230.09 -115.75 L388.61 413.89"/>
    <path fill="#EEEEEE" d="M388.61 413.89 L547.13 943.53 L553.65 941.54 L388.61 413.89"/>
    <path fill="#888889" d="M388.61 413.89 L230.09 -115.75 L223.57 -113.76 L388.61 413.89"/>
    <path fill="#EDEDED" d="M388.61 413.89 L553.65 941.54 L560.13 939.46 L388.61 413.89"/>
    <path fill="#89898A" d="M388.61 413.89 L223.57 -113.76 L217.09 -111.68 L388.61 413.89"/>
    <path fill="#EDEDED" d="M388.61 413.89 L560.13 939.46 L566.6 937.31 L388.61 413.89"/>
    <path fill="#89898A" d="M388.61 413.89 L217.09 -111.68 L210.62 -109.53 L388.61 413.89"/>
    <path fill="#ECECEC" d="M388.61 413.89 L566.6 937.31 L573.03 935.08 L388.61 413.89"/>
    <path fill="#8A8A8B" d="M388.61 413.89 L210.62 -109.53 L204.19 -107.3 L388.61 413.89"/>
    <path fill="#EBEBEC" d="M388.61 413.89 L573.03 935.08 L579.44 932.77 L388.61 413.89"/>
    <path fill="#8A8A8B" d="M388.61 413.89 L204.19 -107.3 L197.78 -104.99 L388.61 413.89"/>
    <path fill="#EBEBEB" d="M388.61 413.89 L579.44 932.77 L585.82 930.38 L388.61 413.89"/>
    <path fill="#8B8B8C" d="M388.61 413.89 L197.78 -104.99 L191.4 -102.6 L388.61 413.89"/>
    <path fill="#EAEAEA" d="M388.61 413.89 L585.82 930.38 L592.16 927.91 L388.61 413.89"/>
    <path fill="#8B8B8C" d="M388.61 413.89 L191.4 -102.6 L185.06 -100.13 L388.61 413.89"/>
    <path fill="#EAEAEA" d="M388.61 413.89 L592.16 927.91 L598.48 925.36 L388.61 413.89"/>
    <path fill="#8C8C8C" d="M388.61 413.89 L185.06 -100.13 L178.74 -97.58 L388.61 413.89"/>
    <path fill="#E9E9E9" d="M388.61 413.89 L598.48 925.36 L604.77 922.74 L388.61 413.89"/>
    <path fill="#8C8C8D" d="M388.61 413.89 L178.74 -97.58 L172.45 -94.96 L388.61 413.89"/>
    <path fill="#E8E8E9" d="M388.61 413.89 L604.77 922.74 L611.02 920.03 L388.61 413.89"/>
    <path fill="#8C8C8D" d="M388.61 413.89 L172.45 -94.96 L166.2 -92.25 L388.61 413.89"/>
    <path fill="#E8E8E8" d="M388.61 413.89 L611.02 920.03 L617.24 917.26 L388.61 413.89"/>
    <path fill="#8D8D8E" d="M388.61 413.89 L166.2 -92.25 L159.98 -89.48 L388.61 413.89"/>
    <path fill="#E7E7E7" d="M388.61 413.89 L617.24 917.26 L623.42 914.4 L388.61 413.89"/>
    <path fill="#8D8D8E" d="M388.61 413.89 L159.98 -89.48 L153.8 -86.62 L388.61 413.89"/>
    <path fill="#E7E7E7" d="M388.61 413.89 L623.42 914.4 L629.57 911.47 L388.61 413.89"/>
    <path fill="#8E8E8F" d="M388.61 413.89 L153.8 -86.62 L147.65 -83.69 L388.61 413.89"/>
    <path fill="#E6E6E6" d="M388.61 413.89 L629.57 911.47 L635.68 908.46 L388.61 413.89"/>
    <path fill="#8E8E8F" d="M388.61 413.89 L147.65 -83.69 L141.54 -80.68 L388.61 413.89"/>
    <path fill="#E5E5E6" d="M388.61 413.89 L635.68 908.46 L641.76 905.38 L388.61 413.89"/>
    <path fill="#8F8F8F" d="M388.61 413.89 L141.54 -80.68 L135.46 -77.6 L388.61 413.89"/>
    <path fill="#E5E5E5" d="M388.61 413.89 L641.76 905.38 L647.79 902.23 L388.61 413.89"/>
    <path fill="#8F8F90" d="M388.61 413.89 L135.46 -77.6 L129.43 -74.45 L388.61 413.89"/>
    <path fill="#E4E4E4" d="M388.61 413.89 L647.79 902.23 L653.79 899 L388.61 413.89"/>
    <path fill="#8F8F90" d="M388.61 413.89 L129.43 -74.45 L123.43 -71.22 L388.61 413.89"/>
    <path fill="#E3E3E4" d="M388.61 413.89 L653.79 899 L659.74 895.69 L388.61 413.89"/>
    <path fill="#909091" d="M388.61 413.89 L123.43 -71.22 L117.48 -67.91 L388.61 413.89"/>
    <path fill="#E3E3E3" d="M388.61 413.89 L659.74 895.69 L665.66 892.32 L388.61 413.89"/>
    <path fill="#909091" d="M388.61 413.89 L117.48 -67.91 L111.56 -64.54 L388.61 413.89"/>
    <path fill="#E2E2E2" d="M388.61 413.89 L665.66 892.32 L671.53 888.87 L388.61 413.89"/>
    <path fill="#919192" d="M388.61 413.89 L111.56 -64.54 L105.69 -61.09 L388.61 413.89"/>
    <path fill="#E2E2E2" d="M388.61 413.89 L671.53 888.87 L677.36 885.34 L388.61 413.89"/>
    <path fill="#919192" d="M388.61 413.89 L105.69 -61.09 L99.86 -57.56 L388.61 413.89"/>
    <path fill="#E1E1E1" d="M388.61 413.89 L677.36 885.34 L683.15 881.75 L388.61 413.89"/>
    <path fill="#929293" d="M388.61 413.89 L99.86 -57.56 L94.07 -53.97 L388.61 413.89"/>
    <path fill="#E0E0E1" d="M388.61 413.89 L683.15 881.75 L688.89 878.09 L388.61 413.89"/>
    <path fill="#929293" d="M388.61 413.89 L94.07 -53.97 L88.33 -50.31 L388.61 413.89"/>
    <path fill="#E0E0E0" d="M388.61 413.89 L688.89 878.09 L694.59 874.35 L388.61 413.89"/>
    <path fill="#939393" d="M388.61 413.89 L88.33 -50.31 L82.63 -46.57 L388.61 413.89"/>
    <path fill="#DFDFDF" d="M388.61 413.89 L694.59 874.35 L700.24 870.55 L388.61 413.89"/>
    <path fill="#939394" d="M388.61 413.89 L82.63 -46.57 L76.98 -42.77 L388.61 413.89"/>
    <path fill="#DFDFDF" d="M388.61 413.89 L700.24 870.55 L705.84 866.67 L388.61 413.89"/>
    <path fill="#939394" d="M388.61 413.89 L76.98 -42.77 L71.38 -38.89 L388.61 413.89"/>
    <path fill="#DEDEDE" d="M388.61 413.89 L705.84 866.67 L711.39 862.73 L388.61 413.89"/>
    <path fill="#949495" d="M388.61 413.89 L71.38 -38.89 L65.83 -34.95 L388.61 413.89"/>
    <path fill="#DDDDDE" d="M388.61 413.89 L711.39 862.73 L716.9 858.72 L388.61 413.89"/>
    <path fill="#949495" d="M388.61 413.89 L65.83 -34.95 L60.32 -30.94 L388.61 413.89"/>
    <path fill="#DDDDDD" d="M388.61 413.89 L716.9 858.72 L722.35 854.64 L388.61 413.89"/>
    <path fill="#959596" d="M388.61 413.89 L60.32 -30.94 L54.87 -26.86 L388.61 413.89"/>
    <path fill="gainsboro" d="M388.61 413.89 L722.35 854.64 L727.76 850.5 L388.61 413.89"/>
    <path fill="#959596" d="M388.61 413.89 L54.87 -26.86 L49.46 -22.72 L388.61 413.89"/>
    <path fill="gainsboro" d="M388.61 413.89 L727.76 850.5 L733.11 846.29 L388.61 413.89"/>
    <path fill="#969696" d="M388.61 413.89 L49.46 -22.72 L44.11 -18.51 L388.61 413.89"/>
    <path fill="#DBDBDB" d="M388.61 413.89 L733.11 846.29 L738.41 842.01 L388.61 413.89"/>
    <path fill="#969697" d="M388.61 413.89 L44.11 -18.51 L38.81 -14.23 L388.61 413.89"/>
    <path fill="#DADADB" d="M388.61 413.89 L738.41 842.01 L743.66 837.67 L388.61 413.89"/>
    <path fill="#979797" d="M388.61 413.89 L38.81 -14.23 L33.56 -9.89 L388.61 413.89"/>
    <path fill="#DADADA" d="M388.61 413.89 L743.66 837.67 L748.85 833.26 L388.61 413.89"/>
    <path fill="#979798" d="M388.61 413.89 L33.56 -9.89 L28.37 -5.48 L388.61 413.89"/>
    <path fill="#D9D9D9" d="M388.61 413.89 L748.85 833.26 L753.99 828.79 L388.61 413.89"/>
    <path fill="#979798" d="M388.61 413.89 L28.37 -5.48 L23.23 -1.01 L388.61 413.89"/>
    <path fill="#D8D8D9" d="M388.61 413.89 L753.99 828.79 L759.08 824.26 L388.61 413.89"/>
    <path fill="#989899" d="M388.61 413.89 L23.23 -1.01 L18.14 3.52 L388.61 413.89"/>
    <path fill="#D8D8D8" d="M388.61 413.89 L759.08 824.26 L764.1 819.66 L388.61 413.89"/>
    <path fill="#989899" d="M388.61 413.89 L18.14 3.52 L13.12 8.12 L388.61 413.89"/>
    <path fill="#D7D7D8" d="M388.61 413.89 L764.1 819.66 L769.07 815.01 L388.61 413.89"/>
    <path fill="#99999A" d="M388.61 413.89 L13.12 8.12 L8.15 12.77 L388.61 413.89"/>
    <path fill="#D7D7D7" d="M388.61 413.89 L769.07 815.01 L773.99 810.29 L388.61 413.89"/>
    <path fill="#99999A" d="M388.61 413.89 L8.15 12.77 L3.23 17.49 L388.61 413.89"/>
    <path fill="#D6D6D6" d="M388.61 413.89 L773.99 810.29 L778.84 805.51 L388.61 413.89"/>
    <path fill="#9A9A9A" d="M388.61 413.89 L3.23 17.49 L-1.62 22.27 L388.61 413.89"/>
    <path fill="#D5D5D6" d="M388.61 413.89 L778.84 805.51 L783.64 800.67 L388.61 413.89"/>
    <path fill="#9A9A9B" d="M388.61 413.89 L-1.62 22.27 L-6.42 27.11 L388.61 413.89"/>
    <path fill="#D5D5D5" d="M388.61 413.89 L783.64 800.67 L788.37 795.78 L388.61 413.89"/>
    <path fill="#9B9B9B" d="M388.61 413.89 L-6.42 27.11 L-11.15 32 L388.61 413.89"/>
    <path fill="#D4D4D5" d="M388.61 413.89 L788.37 795.78 L793.05 790.82 L388.61 413.89"/>
    <path fill="#9B9B9C" d="M388.61 413.89 L-11.15 32 L-15.83 36.96 L388.61 413.89"/>
    <path fill="#D4D4D4" d="M388.61 413.89 L793.05 790.82 L797.66 785.81 L388.61 413.89"/>
    <path fill="#9B9B9C" d="M388.61 413.89 L-15.83 36.96 L-20.44 41.97 L388.61 413.89"/>
    <path fill="lightgrey" d="M388.61 413.89 L797.66 785.81 L802.21 780.74 L388.61 413.89"/>
    <path fill="#9C9C9D" d="M388.61 413.89 L-20.44 41.97 L-24.99 47.04 L388.61 413.89"/>
    <path fill="#D2D2D3" d="M388.61 413.89 L802.21 780.74 L806.7 775.62 L388.61 413.89"/>
    <path fill="#9C9C9D" d="M388.61 413.89 L-24.99 47.04 L-29.48 52.16 L388.61 413.89"/>
    <path fill="#D2D2D2" d="M388.61 413.89 L806.7 775.62 L811.12 770.44 L388.61 413.89"/>
    <path fill="#9D9D9E" d="M388.61 413.89 L-29.48 52.16 L-33.9 57.34 L388.61 413.89"/>
    <path fill="#D1D1D1" d="M388.61 413.89 L811.12 770.44 L815.48 765.21 L388.61 413.89"/>
    <path fill="#9D9D9E" d="M388.61 413.89 L-33.9 57.34 L-38.26 62.57 L388.61 413.89"/>
    <path fill="#D1D1D1" d="M388.61 413.89 L815.48 765.21 L819.78 759.92 L388.61 413.89"/>
    <path fill="#9E9E9E" d="M388.61 413.89 L-38.26 62.57 L-42.56 67.86 L388.61 413.89"/>
    <path fill="#D0D0D0" d="M388.61 413.89 L819.78 759.92 L824.01 754.59 L388.61 413.89"/>
    <path fill="#9E9E9F" d="M388.61 413.89 L-42.56 67.86 L-46.79 73.19 L388.61 413.89"/>
    <path fill="#CFCFD0" d="M388.61 413.89 L824.01 754.59 L828.17 749.2 L388.61 413.89"/>
    <path fill="#9F9F9F" d="M388.61 413.89 L-46.79 73.19 L-50.95 78.58 L388.61 413.89"/>
    <path fill="#CFCFCF" d="M388.61 413.89 L828.17 749.2 L832.27 743.76 L388.61 413.89"/>
    <path fill="#9F9FA0" d="M388.61 413.89 L-50.95 78.58 L-55.05 84.02 L388.61 413.89"/>
    <path fill="#CECECE" d="M388.61 413.89 L832.27 743.76 L836.3 738.26 L388.61 413.89"/>
    <path fill="#9F9FA0" d="M388.61 413.89 L-55.05 84.02 L-59.08 89.52 L388.61 413.89"/>
    <path fill="#CDCDCE" d="M388.61 413.89 L836.3 738.26 L840.26 732.72 L388.61 413.89"/>
    <path fill="#A0A0A1" d="M388.61 413.89 L-59.08 89.52 L-63.04 95.06 L388.61 413.89"/>
    <path fill="#CDCDCD" d="M388.61 413.89 L840.26 732.72 L844.16 727.14 L388.61 413.89"/>
    <path fill="#A0A0A1" d="M388.61 413.89 L-63.04 95.06 L-66.94 100.64 L388.61 413.89"/>
    <path fill="#CCCCCD" d="M388.61 413.89 L844.16 727.14 L847.98 721.5 L388.61 413.89"/>
    <path fill="#A1A1A1" d="M388.61 413.89 L-66.94 100.64 L-70.76 106.28 L388.61 413.89"/>
    <path fill="#CCCCCC" d="M388.61 413.89 L847.98 721.5 L851.74 715.82 L388.61 413.89"/>
    <path fill="#A1A1A2" d="M388.61 413.89 L-70.76 106.28 L-74.52 111.96 L388.61 413.89"/>
    <path fill="#CBCBCB" d="M388.61 413.89 L851.74 715.82 L855.42 710.09 L388.61 413.89"/>
    <path fill="#A2A2A2" d="M388.61 413.89 L-74.52 111.96 L-78.2 117.69 L388.61 413.89"/>
    <path fill="#CACACB" d="M388.61 413.89 L855.42 710.09 L859.04 704.32 L388.61 413.89"/>
    <path fill="#A2A2A3" d="M388.61 413.89 L-78.2 117.69 L-81.82 123.46 L388.61 413.89"/>
    <path fill="#CACACA" d="M388.61 413.89 L859.04 704.32 L862.58 698.5 L388.61 413.89"/>
    <path fill="#A3A3A3" d="M388.61 413.89 L-81.82 123.46 L-85.36 129.28 L388.61 413.89"/>
    <path fill="#C9C9CA" d="M388.61 413.89 L862.58 698.5 L866.05 692.64 L388.61 413.89"/>
    <path fill="#A3A3A4" d="M388.61 413.89 L-85.36 129.28 L-88.83 135.14 L388.61 413.89"/>
    <path fill="#C9C9C9" d="M388.61 413.89 L866.05 692.64 L869.45 686.73 L388.61 413.89"/>
    <path fill="#A3A3A4" d="M388.61 413.89 L-88.83 135.14 L-92.23 141.05 L388.61 413.89"/>
    <path fill="#C8C8C8" d="M388.61 413.89 L869.45 686.73 L872.77 680.79 L388.61 413.89"/>
    <path fill="#A4A4A5" d="M388.61 413.89 L-92.23 141.05 L-95.55 146.99 L388.61 413.89"/>
    <path fill="#C7C7C8" d="M388.61 413.89 L872.77 680.79 L876.02 674.8 L388.61 413.89"/>
    <path fill="#A4A4A5" d="M388.61 413.89 L-95.55 146.99 L-98.8 152.98 L388.61 413.89"/>
    <path fill="#C7C7C7" d="M388.61 413.89 L876.02 674.8 L879.2 668.78 L388.61 413.89"/>
    <path fill="#A5A5A5" d="M388.61 413.89 L-98.8 152.98 L-101.98 159 L388.61 413.89"/>
    <path fill="#C6C6C7" d="M388.61 413.89 L879.2 668.78 L882.3 662.72 L388.61 413.89"/>
    <path fill="#A5A5A6" d="M388.61 413.89 L-101.98 159 L-105.08 165.06 L388.61 413.89"/>
    <path fill="#C6C6C6" d="M388.61 413.89 L882.3 662.72 L885.33 656.62 L388.61 413.89"/>
    <path fill="#A6A6A6" d="M388.61 413.89 L-105.08 165.06 L-108.11 171.16 L388.61 413.89"/>
    <path fill="#C5C5C5" d="M388.61 413.89 L885.33 656.62 L888.28 650.48 L388.61 413.89"/>
    <path fill="#A6A6A7" d="M388.61 413.89 L-108.11 171.16 L-111.06 177.3 L388.61 413.89"/>
    <path fill="#C4C4C5" d="M388.61 413.89 L888.28 650.48 L891.16 644.3 L388.61 413.89"/>
    <path fill="#A7A7A7" d="M388.61 413.89 L-111.06 177.3 L-113.94 183.48 L388.61 413.89"/>
    <path fill="#C4C4C4" d="M388.61 413.89 L891.16 644.3 L893.96 638.1 L388.61 413.89"/>
    <path fill="#A7A7A8" d="M388.61 413.89 L-113.94 183.48 L-116.74 189.68 L388.61 413.89"/>
    <path fill="#C3C3C4" d="M388.61 413.89 L893.96 638.1 L896.68 631.85 L388.61 413.89"/>
    <path fill="#A7A7A8" d="M388.61 413.89 L-116.74 189.68 L-119.46 195.93 L388.61 413.89"/>
    <path fill="#C2C2C3" d="M388.61 413.89 L896.68 631.85 L899.33 625.58 L388.61 413.89"/>
    <path fill="#A8A8A9" d="M388.61 413.89 L-119.46 195.93 L-122.11 202.2 L388.61 413.89"/>
    <path fill="#C2C2C2" d="M388.61 413.89 L899.33 625.58 L901.9 619.27 L388.61 413.89"/>
    <path fill="#A8A8A9" d="M388.61 413.89 L-122.11 202.2 L-124.68 208.51 L388.61 413.89"/>
    <path fill="#C1C1C2" d="M388.61 413.89 L901.9 619.27 L904.39 612.93 L388.61 413.89"/>
    <path fill="darkgray" d="M388.61 413.89 L-124.68 208.51 L-127.17 214.85 L388.61 413.89"/>
    <path fill="#C1C1C1" d="M388.61 413.89 L904.39 612.93 L906.8 606.56 L388.61 413.89"/>
    <path fill="#A9A9AA" d="M388.61 413.89 L-127.17 214.85 L-129.58 221.22 L388.61 413.89"/>
    <path fill="silver" d="M388.61 413.89 L906.8 606.56 L909.14 600.16 L388.61 413.89"/>
    <path fill="#AAAAAA" d="M388.61 413.89 L-129.58 221.22 L-131.92 227.62 L388.61 413.89"/>
    <path fill="#BFBFC0" d="M388.61 413.89 L909.14 600.16 L911.39 593.73 L388.61 413.89"/>
    <path fill="#AAAAAB" d="M388.61 413.89 L-131.92 227.62 L-134.17 234.05 L388.61 413.89"/>
    <path fill="#BFBFBF" d="M388.61 413.89 L911.39 593.73 L913.57 587.28 L388.61 413.89"/>
    <path fill="#ABABAB" d="M388.61 413.89 L-134.17 234.05 L-136.35 240.5 L388.61 413.89"/>
    <path fill="#BEBEBF" d="M388.61 413.89 L913.57 587.28 L915.67 580.8 L388.61 413.89"/>
    <path fill="#ABABAC" d="M388.61 413.89 L-136.35 240.5 L-138.45 246.98 L388.61 413.89"/>
    <path fill="#BEBEBE" d="M388.61 413.89 L915.67 580.8 L917.68 574.29 L388.61 413.89"/>
    <path fill="#ABABAC" d="M388.61 413.89 L-138.45 246.98 L-140.46 253.49 L388.61 413.89"/>
    <path fill="#BDBDBE" d="M388.61 413.89 L917.68 574.29 L919.62 567.76 L388.61 413.89"/>
    <path fill="#ACACAC" d="M388.61 413.89 L-140.46 253.49 L-142.4 260.02 L388.61 413.89"/>
    <path fill="#BDBDBD" d="M388.61 413.89 L919.62 567.76 L921.47 561.21 L388.61 413.89"/>
    <path fill="#ACACAD" d="M388.61 413.89 L-142.4 260.02 L-144.25 266.57 L388.61 413.89"/>
    <path fill="#BCBCBD" d="M388.61 413.89 L921.47 561.21 L923.25 554.63 L388.61 413.89"/>
    <path fill="#ADADAD" d="M388.61 413.89 L-144.25 266.57 L-146.03 273.15 L388.61 413.89"/>
    <path fill="#BCBCBC" d="M388.61 413.89 L923.25 554.63 L924.94 548.04 L388.61 413.89"/>
    <path fill="#ADADAE" d="M388.61 413.89 L-146.03 273.15 L-147.72 279.74 L388.61 413.89"/>
    <path fill="#BBBBBC" d="M388.61 413.89 L924.94 548.04 L926.55 541.42 L388.61 413.89"/>
    <path fill="#AEAEAE" d="M388.61 413.89 L-147.72 279.74 L-149.33 286.36 L388.61 413.89"/>
    <path fill="#BBBBBB" d="M388.61 413.89 L926.55 541.42 L928.09 534.78 L388.61 413.89"/>
    <path fill="#AEAEAF" d="M388.61 413.89 L-149.33 286.36 L-150.87 293 L388.61 413.89"/>
    <path fill="#BABABB" d="M388.61 413.89 L928.09 534.78 L929.53 528.13 L388.61 413.89"/>
    <path fill="#AEAEAF" d="M388.61 413.89 L-150.87 293 L-152.31 299.65 L388.61 413.89"/>
    <path fill="#BABABB" d="M388.61 413.89 L929.53 528.13 L930.9 521.45 L388.61 413.89"/>
    <path fill="#AFAFB0" d="M388.61 413.89 L-152.31 299.65 L-153.68 306.33 L388.61 413.89"/>
    <path fill="#BABABA" d="M388.61 413.89 L930.9 521.45 L932.18 514.76 L388.61 413.89"/>
    <path fill="#AFAFB0" d="M388.61 413.89 L-153.68 306.33 L-154.96 313.02 L388.61 413.89"/>
    <path fill="#B9B9BA" d="M388.61 413.89 L932.18 514.76 L933.39 508.06 L388.61 413.89"/>
    <path fill="#B0B0B0" d="M388.61 413.89 L-154.96 313.02 L-156.17 319.72 L388.61 413.89"/>
    <path fill="#B9B9B9" d="M388.61 413.89 L933.39 508.06 L934.5 501.34 L388.61 413.89"/>
    <path fill="#B0B0B1" d="M388.61 413.89 L-156.17 319.72 L-157.28 326.44 L388.61 413.89"/>
    <path fill="#B8B8B9" d="M388.61 413.89 L934.5 501.34 L935.54 494.61 L388.61 413.89"/>
    <path fill="#B1B1B1" d="M388.61 413.89 L-157.28 326.44 L-158.32 333.17 L388.61 413.89"/>
    <path fill="#B8B8B8" d="M388.61 413.89 L935.54 494.61 L936.49 487.87 L388.61 413.89"/>
    <path fill="#B1B1B2" d="M388.61 413.89 L-158.32 333.17 L-159.27 339.91 L388.61 413.89"/>
    <path fill="#B7B7B8" d="M388.61 413.89 L936.49 487.87 L937.36 481.11 L388.61 413.89"/>
    <path fill="#B2B2B2" d="M388.61 413.89 L-159.27 339.91 L-160.14 346.67 L388.61 413.89"/>
    <path fill="#B7B7B7" d="M388.61 413.89 L937.36 481.11 L938.15 474.34 L388.61 413.89"/>
    <path fill="#B2B2B3" d="M388.61 413.89 L-160.14 346.67 L-160.93 353.44 L388.61 413.89"/>
    <path fill="#B6B6B7" d="M388.61 413.89 L938.15 474.34 L938.85 467.57 L388.61 413.89"/>
    <path fill="#B2B2B3" d="M388.61 413.89 L-160.93 353.44 L-161.63 360.21 L388.61 413.89"/>
    <path fill="#B6B6B7" d="M388.61 413.89 L938.85 467.57 L939.47 460.79 L388.61 413.89"/>
    <path fill="#B3B3B3" d="M388.61 413.89 L-161.63 360.21 L-162.25 366.99 L388.61 413.89"/>
    <path fill="#B6B6B6" d="M388.61 413.89 L939.47 460.79 L940.01 454 L388.61 413.89"/>
    <path fill="#B3B3B4" d="M388.61 413.89 L-162.25 366.99 L-162.79 373.78 L388.61 413.89"/>
    <path fill="#B5B5B6" d="M388.61 413.89 L940.01 454 L940.46 447.2 L388.61 413.89"/>
    <path fill="#B4B4B4" d="M388.61 413.89 L-162.79 373.78 L-163.24 380.58 L388.61 413.89"/>
    <path fill="#B5B5B5" d="M388.61 413.89 L940.46 447.2 L940.83 440.4 L388.61 413.89"/>
    <path fill="#B4B4B5" d="M388.61 413.89 L-163.24 380.58 L-163.61 387.38 L388.61 413.89"/>
    <path fill="#B4B4B5" d="M388.61 413.89 L940.83 440.4 L941.11 433.59 L388.61 413.89"/>
    <path fill="#B5B5B5" d="M388.61 413.89 L-163.61 387.38 L-163.89 394.19 L388.61 413.89"/>
    <path fill="#B4B4B4" d="M388.61 413.89 L941.11 433.59 L941.31 426.79 L388.61 413.89"/>
    <path fill="#B5B5B6" d="M388.61 413.89 L-163.89 394.19 L-164.09 400.99 L388.61 413.89"/>
    <path fill="#B3B3B4" d="M388.61 413.89 L941.31 426.79 L941.43 419.98 L388.61 413.89"/>
    <path fill="#B6B6B6" d="M388.61 413.89 L-164.09 400.99 L-164.21 407.8 L388.61 413.89"/>
    <path fill="#B3B3B3" d="M388.61 413.89 L941.43 419.98 L941.47 413.17 L388.61 413.89"/>
    <path fill="#B6B6B7" d="M388.61 413.89 L-164.21 407.8 L-164.25 414.61 L388.61 413.89"/>
    <path fill="#B2B2B3" d="M388.61 413.89 L941.47 413.17 L941.41 406.36 L388.61 413.89"/>
    <path fill="#B6B6B7" d="M388.61 413.89 L-164.25 414.61 L-164.19 421.42 L388.61 413.89"/>
    <path fill="#B2B2B3" d="M388.61 413.89 L941.41 406.36 L941.28 399.55 L388.61 413.89"/>
    <path fill="#B7B7B7" d="M388.61 413.89 L-164.19 421.42 L-164.06 428.23 L388.61 413.89"/>
    <path fill="#B2B2B2" d="M388.61 413.89 L941.28 399.55 L941.06 392.75 L388.61 413.89"/>
    <path fill="#B7B7B8" d="M388.61 413.89 L-164.06 428.23 L-163.84 435.03 L388.61 413.89"/>
    <path fill="#B1B1B2" d="M388.61 413.89 L941.06 392.75 L940.76 385.94 L388.61 413.89"/>
    <path fill="#B8B8B8" d="M388.61 413.89 L-163.84 435.03 L-163.54 441.84 L388.61 413.89"/>
    <path fill="#B1B1B1" d="M388.61 413.89 L940.76 385.94 L940.37 379.14 L388.61 413.89"/>
    <path fill="#B8B8B9" d="M388.61 413.89 L-163.54 441.84 L-163.15 448.64 L388.61 413.89"/>
    <path fill="#B0B0B1" d="M388.61 413.89 L940.37 379.14 L939.9 372.35 L388.61 413.89"/>
    <path fill="#B9B9B9" d="M388.61 413.89 L-163.15 448.64 L-162.68 455.43 L388.61 413.89"/>
    <path fill="#B0B0B0" d="M388.61 413.89 L939.9 372.35 L939.35 365.56 L388.61 413.89"/>
    <path fill="#B9B9BA" d="M388.61 413.89 L-162.68 455.43 L-162.13 462.22 L388.61 413.89"/>
    <path fill="#AFAFB0" d="M388.61 413.89 L939.35 365.56 L938.71 358.78 L388.61 413.89"/>
    <path fill="#BABABA" d="M388.61 413.89 L-162.13 462.22 L-161.49 469 L388.61 413.89"/>
    <path fill="#AFAFB0" d="M388.61 413.89 L938.71 358.78 L937.99 352 L388.61 413.89"/>
    <path fill="#BABABB" d="M388.61 413.89 L-161.49 469 L-160.77 475.78 L388.61 413.89"/>
    <path fill="#AEAEAF" d="M388.61 413.89 L937.99 352 L937.19 345.24 L388.61 413.89"/>
    <path fill="#BABABB" d="M388.61 413.89 L-160.77 475.78 L-159.97 482.54 L388.61 413.89"/>
    <path fill="#AEAEAF" d="M388.61 413.89 L937.19 345.24 L936.3 338.49 L388.61 413.89"/>
    <path fill="#BBBBBB" d="M388.61 413.89 L-159.97 482.54 L-159.08 489.29 L388.61 413.89"/>
    <path fill="#AEAEAE" d="M388.61 413.89 L936.3 338.49 L935.33 331.75 L388.61 413.89"/>
    <path fill="#BBBBBC" d="M388.61 413.89 L-159.08 489.29 L-158.11 496.03 L388.61 413.89"/>
    <path fill="#ADADAE" d="M388.61 413.89 L935.33 331.75 L934.27 325.02 L388.61 413.89"/>
    <path fill="#BCBCBC" d="M388.61 413.89 L-158.11 496.03 L-157.05 502.76 L388.61 413.89"/>
    <path fill="#ADADAD" d="M388.61 413.89 L934.27 325.02 L933.14 318.3 L388.61 413.89"/>
    <path fill="#BCBCBD" d="M388.61 413.89 L-157.05 502.76 L-155.92 509.48 L388.61 413.89"/>
    <path fill="#ACACAD" d="M388.61 413.89 L933.14 318.3 L931.92 311.6 L388.61 413.89"/>
    <path fill="#BDBDBD" d="M388.61 413.89 L-155.92 509.48 L-154.7 516.18 L388.61 413.89"/>
    <path fill="#ACACAC" d="M388.61 413.89 L931.92 311.6 L930.62 304.91 L388.61 413.89"/>
    <path fill="#BDBDBE" d="M388.61 413.89 L-154.7 516.18 L-153.4 522.87 L388.61 413.89"/>
    <path fill="#ABABAC" d="M388.61 413.89 L930.62 304.91 L929.23 298.24 L388.61 413.89"/>
    <path fill="#BEBEBE" d="M388.61 413.89 L-153.4 522.87 L-152.01 529.54 L388.61 413.89"/>
    <path fill="#ABABAC" d="M388.61 413.89 L929.23 298.24 L927.77 291.59 L388.61 413.89"/>
    <path fill="#BEBEBF" d="M388.61 413.89 L-152.01 529.54 L-150.55 536.19 L388.61 413.89"/>
    <path fill="#ABABAB" d="M388.61 413.89 L927.77 291.59 L926.22 284.96 L388.61 413.89"/>
    <path fill="#BFBFBF" d="M388.61 413.89 L-150.55 536.19 L-149 542.82 L388.61 413.89"/>
    <path fill="#AAAAAB" d="M388.61 413.89 L926.22 284.96 L924.59 278.35 L388.61 413.89"/>
    <path fill="#BFBFC0" d="M388.61 413.89 L-149 542.82 L-147.37 549.43 L388.61 413.89"/>
    <path fill="#AAAAAA" d="M388.61 413.89 L924.59 278.35 L922.88 271.75 L388.61 413.89"/>
    <path fill="silver" d="M388.61 413.89 L-147.37 549.43 L-145.66 556.03 L388.61 413.89"/>
    <path fill="#A9A9AA" d="M388.61 413.89 L922.88 271.75 L921.09 265.18 L388.61 413.89"/>
    <path fill="#C1C1C1" d="M388.61 413.89 L-145.66 556.03 L-143.87 562.6 L388.61 413.89"/>
    <path fill="darkgray" d="M388.61 413.89 L921.09 265.18 L919.22 258.63 L388.61 413.89"/>
    <path fill="#C1C1C2" d="M388.61 413.89 L-143.87 562.6 L-142 569.15 L388.61 413.89"/>
    <path fill="#A8A8A9" d="M388.61 413.89 L919.22 258.63 L917.26 252.11 L388.61 413.89"/>
    <path fill="#C2C2C2" d="M388.61 413.89 L-142 569.15 L-140.04 575.67 L388.61 413.89"/>
    <path fill="#A8A8A9" d="M388.61 413.89 L917.26 252.11 L915.23 245.61 L388.61 413.89"/>
    <path fill="#C2C2C3" d="M388.61 413.89 L-140.04 575.67 L-138.01 582.17 L388.61 413.89"/>
    <path fill="#A7A7A8" d="M388.61 413.89 L915.23 245.61 L913.12 239.13 L388.61 413.89"/>
    <path fill="#C3C3C4" d="M388.61 413.89 L-138.01 582.17 L-135.9 588.65 L388.61 413.89"/>
    <path fill="#A7A7A8" d="M388.61 413.89 L913.12 239.13 L910.92 232.68 L388.61 413.89"/>
    <path fill="#C4C4C4" d="M388.61 413.89 L-135.9 588.65 L-133.7 595.1 L388.61 413.89"/>
    <path fill="#A7A7A7" d="M388.61 413.89 L910.92 232.68 L908.65 226.26 L388.61 413.89"/>
    <path fill="#C4C4C5" d="M388.61 413.89 L-133.7 595.1 L-131.43 601.52 L388.61 413.89"/>
    <path fill="#A6A6A7" d="M388.61 413.89 L908.65 226.26 L906.3 219.87 L388.61 413.89"/>
    <path fill="#C5C5C5" d="M388.61 413.89 L-131.43 601.52 L-129.08 607.91 L388.61 413.89"/>
    <path fill="#A6A6A6" d="M388.61 413.89 L906.3 219.87 L903.87 213.51 L388.61 413.89"/>
    <path fill="#C6C6C6" d="M388.61 413.89 L-129.08 607.91 L-126.65 614.27 L388.61 413.89"/>
    <path fill="#A5A5A6" d="M388.61 413.89 L903.87 213.51 L901.36 207.17 L388.61 413.89"/>
    <path fill="#C6C6C7" d="M388.61 413.89 L-126.65 614.27 L-124.14 620.61 L388.61 413.89"/>
    <path fill="#A5A5A5" d="M388.61 413.89 L901.36 207.17 L898.78 200.87 L388.61 413.89"/>
    <path fill="#C7C7C7" d="M388.61 413.89 L-124.14 620.61 L-121.56 626.91 L388.61 413.89"/>
    <path fill="#A4A4A5" d="M388.61 413.89 L898.78 200.87 L896.11 194.6 L388.61 413.89"/>
    <path fill="#C7C7C8" d="M388.61 413.89 L-121.56 626.91 L-118.89 633.18 L388.61 413.89"/>
    <path fill="#A4A4A5" d="M388.61 413.89 L896.11 194.6 L893.37 188.37 L388.61 413.89"/>
    <path fill="#C8C8C8" d="M388.61 413.89 L-118.89 633.18 L-116.15 639.41 L388.61 413.89"/>
    <path fill="#A3A3A4" d="M388.61 413.89 L893.37 188.37 L890.56 182.17 L388.61 413.89"/>
    <path fill="#C9C9C9" d="M388.61 413.89 L-116.15 639.41 L-113.34 645.61 L388.61 413.89"/>
    <path fill="#A3A3A4" d="M388.61 413.89 L890.56 182.17 L887.67 176 L388.61 413.89"/>
    <path fill="#C9C9CA" d="M388.61 413.89 L-113.34 645.61 L-110.45 651.78 L388.61 413.89"/>
    <path fill="#A3A3A3" d="M388.61 413.89 L887.67 176 L884.7 169.87 L388.61 413.89"/>
    <path fill="#CACACA" d="M388.61 413.89 L-110.45 651.78 L-107.48 657.91 L388.61 413.89"/>
    <path fill="#A2A2A3" d="M388.61 413.89 L884.7 169.87 L881.65 163.78 L388.61 413.89"/>
    <path fill="#CACACB" d="M388.61 413.89 L-107.48 657.91 L-104.43 664 L388.61 413.89"/>
    <path fill="#A2A2A2" d="M388.61 413.89 L881.65 163.78 L878.53 157.72 L388.61 413.89"/>
    <path fill="#CBCBCB" d="M388.61 413.89 L-104.43 664 L-101.31 670.06 L388.61 413.89"/>
    <path fill="#A1A1A2" d="M388.61 413.89 L878.53 157.72 L875.34 151.71 L388.61 413.89"/>
    <path fill="#CCCCCC" d="M388.61 413.89 L-101.31 670.06 L-98.12 676.07 L388.61 413.89"/>
    <path fill="#A1A1A1" d="M388.61 413.89 L875.34 151.71 L872.07 145.73 L388.61 413.89"/>
    <path fill="#CCCCCD" d="M388.61 413.89 L-98.12 676.07 L-94.85 682.05 L388.61 413.89"/>
    <path fill="#A0A0A1" d="M388.61 413.89 L872.07 145.73 L868.73 139.79 L388.61 413.89"/>
    <path fill="#CDCDCD" d="M388.61 413.89 L-94.85 682.05 L-91.51 687.99 L388.61 413.89"/>
    <path fill="#A0A0A1" d="M388.61 413.89 L868.73 139.79 L865.32 133.9 L388.61 413.89"/>
    <path fill="#CDCDCE" d="M388.61 413.89 L-91.51 687.99 L-88.1 693.88 L388.61 413.89"/>
    <path fill="#9F9FA0" d="M388.61 413.89 L865.32 133.9 L861.83 128.05 L388.61 413.89"/>
    <path fill="#CECECE" d="M388.61 413.89 L-88.1 693.88 L-84.61 699.73 L388.61 413.89"/>
    <path fill="#9F9FA0" d="M388.61 413.89 L861.83 128.05 L858.28 122.24 L388.61 413.89"/>
    <path fill="#CFCFCF" d="M388.61 413.89 L-84.61 699.73 L-81.06 705.54 L388.61 413.89"/>
    <path fill="#9F9F9F" d="M388.61 413.89 L858.28 122.24 L854.65 116.48 L388.61 413.89"/>
    <path fill="#CFCFD0" d="M388.61 413.89 L-81.06 705.54 L-77.43 711.3 L388.61 413.89"/>
    <path fill="#9E9E9F" d="M388.61 413.89 L854.65 116.48 L850.95 110.76 L388.61 413.89"/>
    <path fill="#D0D0D0" d="M388.61 413.89 L-77.43 711.3 L-73.73 717.02 L388.61 413.89"/>
    <path fill="#9E9E9E" d="M388.61 413.89 L850.95 110.76 L847.18 105.08 L388.61 413.89"/>
    <path fill="#D1D1D1" d="M388.61 413.89 L-73.73 717.02 L-69.96 722.7 L388.61 413.89"/>
    <path fill="#9D9D9E" d="M388.61 413.89 L847.18 105.08 L843.34 99.46 L388.61 413.89"/>
    <path fill="#D1D1D1" d="M388.61 413.89 L-69.96 722.7 L-66.12 728.32 L388.61 413.89"/>
    <path fill="#9D9D9E" d="M388.61 413.89 L843.34 99.46 L839.43 93.88 L388.61 413.89"/>
    <path fill="#D2D2D2" d="M388.61 413.89 L-66.12 728.32 L-62.21 733.9 L388.61 413.89"/>
    <path fill="#9C9C9D" d="M388.61 413.89 L839.43 93.88 L835.45 88.35 L388.61 413.89"/>
    <path fill="#D2D2D3" d="M388.61 413.89 L-62.21 733.9 L-58.23 739.43 L388.61 413.89"/>
    <path fill="#9C9C9D" d="M388.61 413.89 L835.45 88.35 L831.41 82.87 L388.61 413.89"/>
    <path fill="lightgrey" d="M388.61 413.89 L-58.23 739.43 L-54.19 744.91 L388.61 413.89"/>
    <path fill="#9B9B9C" d="M388.61 413.89 L831.41 82.87 L827.3 77.44 L388.61 413.89"/>
    <path fill="#D4D4D4" d="M388.61 413.89 L-54.19 744.91 L-50.08 750.34 L388.61 413.89"/>
    <path fill="#9B9B9C" d="M388.61 413.89 L827.3 77.44 L823.12 72.06 L388.61 413.89"/>
    <path fill="#D4D4D5" d="M388.61 413.89 L-50.08 750.34 L-45.9 755.72 L388.61 413.89"/>
    <path fill="#9B9B9B" d="M388.61 413.89 L823.12 72.06 L818.88 66.73 L388.61 413.89"/>
    <path fill="#D5D5D5" d="M388.61 413.89 L-45.9 755.72 L-41.66 761.05 L388.61 413.89"/>
    <path fill="#9A9A9B" d="M388.61 413.89 L818.88 66.73 L814.57 61.46 L388.61 413.89"/>
    <path fill="#D5D5D6" d="M388.61 413.89 L-41.66 761.05 L-37.35 766.32 L388.61 413.89"/>
    <path fill="#9A9A9A" d="M388.61 413.89 L814.57 61.46 L810.19 56.24 L388.61 413.89"/>
    <path fill="#D6D6D6" d="M388.61 413.89 L-37.35 766.32 L-32.97 771.54 L388.61 413.89"/>
    <path fill="#99999A" d="M388.61 413.89 L810.19 56.24 L805.75 51.07 L388.61 413.89"/>
    <path fill="#D7D7D7" d="M388.61 413.89 L-32.97 771.54 L-28.53 776.71 L388.61 413.89"/>
    <path fill="#99999A" d="M388.61 413.89 L805.75 51.07 L801.25 45.96 L388.61 413.89"/>
    <path fill="#D7D7D8" d="M388.61 413.89 L-28.53 776.71 L-24.03 781.82 L388.61 413.89"/>
    <path fill="#989899" d="M388.61 413.89 L801.25 45.96 L796.69 40.9 L388.61 413.89"/>
    <path fill="#D8D8D8" d="M388.61 413.89 L-24.03 781.82 L-19.47 786.88 L388.61 413.89"/>
    <path fill="#989899" d="M388.61 413.89 L796.69 40.9 L792.06 35.9 L388.61 413.89"/>
    <path fill="#D8D8D9" d="M388.61 413.89 L-19.47 786.88 L-14.84 791.88 L388.61 413.89"/>
    <path fill="#979798" d="M388.61 413.89 L792.06 35.9 L787.37 30.96 L388.61 413.89"/>
    <path fill="#D9D9D9" d="M388.61 413.89 L-14.84 791.88 L-10.15 796.82 L388.61 413.89"/>
    <path fill="#979798" d="M388.61 413.89 L787.37 30.96 L782.63 26.08 L388.61 413.89"/>
    <path fill="#DADADA" d="M388.61 413.89 L-10.15 796.82 L-5.41 801.7 L388.61 413.89"/>
    <path fill="#979797" d="M388.61 413.89 L782.63 26.08 L777.82 21.25 L388.61 413.89"/>
    <path fill="#DADADB" d="M388.61 413.89 L-5.41 801.7 L-0.6 806.53 L388.61 413.89"/>
    <path fill="#969697" d="M388.61 413.89 L777.82 21.25 L772.95 16.49 L388.61 413.89"/>
    <path fill="#DBDBDB" d="M388.61 413.89 L-0.6 806.53 L4.27 811.29 L388.61 413.89"/>
    <path fill="#969696" d="M388.61 413.89 L772.95 16.49 L768.03 11.78 L388.61 413.89"/>
    <path fill="gainsboro" d="M388.61 413.89 L4.27 811.29 L9.19 816 L388.61 413.89"/>
    <path fill="#959596" d="M388.61 413.89 L768.03 11.78 L763.04 7.14 L388.61 413.89"/>
    <path fill="gainsboro" d="M388.61 413.89 L9.19 816 L14.18 820.64 L388.61 413.89"/>
    <path fill="#959596" d="M388.61 413.89 L763.04 7.14 L758.01 2.56 L388.61 413.89"/>
    <path fill="#DDDDDD" d="M388.61 413.89 L14.18 820.64 L19.21 825.22 L388.61 413.89"/>
    <path fill="#949495" d="M388.61 413.89 L758.01 2.56 L752.91 -1.96 L388.61 413.89"/>
    <path fill="#DDDDDE" d="M388.61 413.89 L19.21 825.22 L24.31 829.74 L388.61 413.89"/>
    <path fill="#949495" d="M388.61 413.89 L752.91 -1.96 L747.76 -6.42 L388.61 413.89"/>
    <path fill="#DEDEDE" d="M388.61 413.89 L24.31 829.74 L29.46 834.2 L388.61 413.89"/>
    <path fill="#939394" d="M388.61 413.89 L747.76 -6.42 L742.55 -10.81 L388.61 413.89"/>
    <path fill="#DFDFDF" d="M388.61 413.89 L29.46 834.2 L34.67 838.59 L388.61 413.89"/>
    <path fill="#939394" d="M388.61 413.89 L742.55 -10.81 L737.29 -15.14 L388.61 413.89"/>
    <path fill="#DFDFDF" d="M388.61 413.89 L34.67 838.59 L39.93 842.92 L388.61 413.89"/>
    <path fill="#939393" d="M388.61 413.89 L737.29 -15.14 L731.98 -19.4 L388.61 413.89"/>
    <path fill="#E0E0E0" d="M388.61 413.89 L39.93 842.92 L45.24 847.18 L388.61 413.89"/>
    <path fill="#929293" d="M388.61 413.89 L731.98 -19.4 L726.62 -23.6 L388.61 413.89"/>
    <path fill="#E0E0E1" d="M388.61 413.89 L45.24 847.18 L50.6 851.38 L388.61 413.89"/>
    <path fill="#929293" d="M388.61 413.89 L726.62 -23.6 L721.2 -27.73 L388.61 413.89"/>
    <path fill="#E1E1E1" d="M388.61 413.89 L50.6 851.38 L56.02 855.51 L388.61 413.89"/>
    <path fill="#919192" d="M388.61 413.89 L721.2 -27.73 L715.74 -31.79 L388.61 413.89"/>
    <path fill="#E2E2E2" d="M388.61 413.89 L56.02 855.51 L61.48 859.57 L388.61 413.89"/>
    <path fill="#919192" d="M388.61 413.89 L715.74 -31.79 L710.22 -35.79 L388.61 413.89"/>
    <path fill="#E2E2E2" d="M388.61 413.89 L61.48 859.57 L67 863.57 L388.61 413.89"/>
    <path fill="#909091" d="M388.61 413.89 L710.22 -35.79 L704.66 -39.72 L388.61 413.89"/>
    <path fill="#E3E3E3" d="M388.61 413.89 L67 863.57 L72.56 867.5 L388.61 413.89"/>
    <path fill="#909091" d="M388.61 413.89 L704.66 -39.72 L699.04 -43.58 L388.61 413.89"/>
    <path fill="#E3E3E4" d="M388.61 413.89 L72.56 867.5 L78.18 871.36 L388.61 413.89"/>
    <path fill="#8F8F90" d="M388.61 413.89 L699.04 -43.58 L693.39 -47.37 L388.61 413.89"/>
    <path fill="#E4E4E4" d="M388.61 413.89 L78.18 871.36 L83.83 875.15 L388.61 413.89"/>
    <path fill="#8F8F90" d="M388.61 413.89 L693.39 -47.37 L687.68 -51.09 L388.61 413.89"/>
    <path fill="#E5E5E5" d="M388.61 413.89 L83.83 875.15 L89.54 878.87 L388.61 413.89"/>
    <path fill="#8F8F8F" d="M388.61 413.89 L687.68 -51.09 L681.93 -54.74 L388.61 413.89"/>
    <path fill="#E5E5E6" d="M388.61 413.89 L89.54 878.87 L95.29 882.52 L388.61 413.89"/>
    <path fill="#8E8E8F" d="M388.61 413.89 L681.93 -54.74 L676.13 -58.32 L388.61 413.89"/>
    <path fill="#E6E6E6" d="M388.61 413.89 L95.29 882.52 L101.09 886.1 L388.61 413.89"/>
    <path fill="#8E8E8F" d="M388.61 413.89 L676.13 -58.32 L670.29 -61.82 L388.61 413.89"/>
    <path fill="#E7E7E7" d="M388.61 413.89 L101.09 886.1 L106.93 889.6 L388.61 413.89"/>
    <path fill="#8D8D8E" d="M388.61 413.89 L670.29 -61.82 L664.41 -65.26 L388.61 413.89"/>
    <path fill="#E7E7E7" d="M388.61 413.89 L106.93 889.6 L112.81 893.04 L388.61 413.89"/>
    <path fill="#8D8D8E" d="M388.61 413.89 L664.41 -65.26 L658.49 -68.62 L388.61 413.89"/>
    <path fill="#E8E8E8" d="M388.61 413.89 L112.81 893.04 L118.73 896.4 L388.61 413.89"/>
    <path fill="#8C8C8D" d="M388.61 413.89 L658.49 -68.62 L652.52 -71.91 L388.61 413.89"/>
    <path fill="#E8E8E9" d="M388.61 413.89 L118.73 896.4 L124.7 899.69 L388.61 413.89"/>
    <path fill="#8C8C8D" d="M388.61 413.89 L652.52 -71.91 L646.52 -75.12 L388.61 413.89"/>
    <path fill="#E9E9E9" d="M388.61 413.89 L124.7 899.69 L130.7 902.9 L388.61 413.89"/>
    <path fill="#8C8C8C" d="M388.61 413.89 L646.52 -75.12 L640.47 -78.26 L388.61 413.89"/>
    <path fill="#EAEAEA" d="M388.61 413.89 L130.7 902.9 L136.75 906.04 L388.61 413.89"/>
    <path fill="#8B8B8C" d="M388.61 413.89 L640.47 -78.26 L634.39 -81.33 L388.61 413.89"/>
    <path fill="#EAEAEA" d="M388.61 413.89 L136.75 906.04 L142.83 909.11 L388.61 413.89"/>
    <path fill="#8B8B8C" d="M388.61 413.89 L634.39 -81.33 L628.27 -84.32 L388.61 413.89"/>
    <path fill="#EBEBEB" d="M388.61 413.89 L142.83 909.11 L148.95 912.1 L388.61 413.89"/>
    <path fill="#8A8A8B" d="M388.61 413.89 L628.27 -84.32 L622.12 -87.23 L388.61 413.89"/>
    <path fill="#EBEBEC" d="M388.61 413.89 L148.95 912.1 L155.1 915.01 L388.61 413.89"/>
    <path fill="#8A8A8B" d="M388.61 413.89 L622.12 -87.23 L615.92 -90.07 L388.61 413.89"/>
    <path fill="#ECECEC" d="M388.61 413.89 L155.1 915.01 L161.3 917.85 L388.61 413.89"/>
    <path fill="#89898A" d="M388.61 413.89 L615.92 -90.07 L609.7 -92.83 L388.61 413.89"/>
    <path fill="#EDEDED" d="M388.61 413.89 L161.3 917.85 L167.52 920.61 L388.61 413.89"/>
    <path fill="#89898A" d="M388.61 413.89 L609.7 -92.83 L603.44 -95.52 L388.61 413.89"/>
    <path fill="#EDEDED" d="M388.61 413.89 L167.52 920.61 L173.78 923.3 L388.61 413.89"/>
    <path fill="#888889" d="M388.61 413.89 L603.44 -95.52 L597.15 -98.13 L388.61 413.89"/>
    <path fill="#EEEEEE" d="M388.61 413.89 L173.78 923.3 L180.07 925.91 L388.61 413.89"/>
    <path fill="#888889" d="M388.61 413.89 L597.15 -98.13 L590.82 -100.66 L388.61 413.89"/>
    <path fill="#EEEEEF" d="M388.61 413.89 L180.07 925.91 L186.4 928.44 L388.61 413.89"/>
    <path fill="#888888" d="M388.61 413.89 L590.82 -100.66 L584.47 -103.11 L388.61 413.89"/>
    <path fill="#EFEFEF" d="M388.61 413.89 L186.4 928.44 L192.75 930.89 L388.61 413.89"/>
    <path fill="#878788" d="M388.61 413.89 L584.47 -103.11 L578.08 -105.48 L388.61 413.89"/>
    <path fill="#F0F0F0" d="M388.61 413.89 L192.75 930.89 L199.14 933.26 L388.61 413.89"/>
    <path fill="#878788" d="M388.61 413.89 L578.08 -105.48 L571.67 -107.78 L388.61 413.89"/>
    <path fill="#F0F0F0" d="M388.61 413.89 L199.14 933.26 L205.55 935.56 L388.61 413.89"/>
    <path fill="#868687" d="M388.61 413.89 L571.67 -107.78 L565.23 -109.99 L388.61 413.89"/>
    <path fill="#F1F1F1" d="M388.61 413.89 L205.55 935.56 L211.99 937.77 L388.61 413.89"/>
    <path fill="#868687" d="M388.61 413.89 L565.23 -109.99 L558.76 -112.13 L388.61 413.89"/>
    <path fill="#F2F2F2" d="M388.61 413.89 L211.99 937.77 L218.46 939.91 L388.61 413.89"/>
    <path fill="#858586" d="M388.61 413.89 L558.76 -112.13 L552.27 -114.19 L388.61 413.89"/>
    <path fill="#F2F2F2" d="M388.61 413.89 L218.46 939.91 L224.95 941.97 L388.61 413.89"/>
    <path fill="#858586" d="M388.61 413.89 L552.27 -114.19 L545.75 -116.16 L388.61 413.89"/>
    <path fill="#F3F3F3" d="M388.61 413.89 L224.95 941.97 L231.47 943.94 L388.61 413.89"/>
    <path fill="#848485" d="M388.61 413.89 L545.75 -116.16 L539.21 -118.06 L388.61 413.89"/>
    <path fill="#F3F3F3" d="M388.61 413.89 L231.47 943.94 L238.01 945.84 L388.61 413.89"/>
    <path fill="#848485" d="M388.61 413.89 L539.21 -118.06 L532.64 -119.87 L388.61 413.89"/>
    <path fill="#F4F4F4" d="M388.61 413.89 L238.01 945.84 L244.58 947.65 L388.61 413.89"/>
    <path fill="#848484" d="M388.61 413.89 L532.64 -119.87 L526.06 -121.61 L388.61 413.89"/>
    <path fill="whitesmoke" d="M388.61 413.89 L244.58 947.65 L251.16 949.39 L388.61 413.89"/>
    <path fill="#838384" d="M388.61 413.89 L526.06 -121.61 L519.45 -123.26 L388.61 413.89"/>
    <path fill="whitesmoke" d="M388.61 413.89 L251.16 949.39 L257.77 951.04 L388.61 413.89"/>
    <path fill="#838384" d="M388.61 413.89 L519.45 -123.26 L512.82 -124.83 L388.61 413.89"/>
    <path fill="#F6F6F6" d="M388.61 413.89 L257.77 951.04 L264.4 952.61 L388.61 413.89"/>
    <path fill="#828283" d="M388.61 413.89 L512.82 -124.83 L506.18 -126.32 L388.61 413.89"/>
    <path fill="#F6F6F7" d="M388.61 413.89 L264.4 952.61 L271.04 954.1 L388.61 413.89"/>
    <path fill="#828283" d="M388.61 413.89 L506.18 -126.32 L499.51 -127.73 L388.61 413.89"/>
    <path fill="#F7F7F7" d="M388.61 413.89 L271.04 954.1 L277.71 955.51 L388.61 413.89"/>
    <path fill="#818182" d="M388.61 413.89 L499.51 -127.73 L492.83 -129.05 L388.61 413.89"/>
    <path fill="#F8F8F8" d="M388.61 413.89 L277.71 955.51 L284.39 956.83 L388.61 413.89"/>
    <path fill="#818182" d="M388.61 413.89 L492.83 -129.05 L486.13 -130.29 L388.61 413.89"/>
    <path fill="#F8F8F8" d="M388.61 413.89 L284.39 956.83 L291.09 958.07 L388.61 413.89"/>
    <path fill="#808081" d="M388.61 413.89 L486.13 -130.29 L479.42 -131.46 L388.61 413.89"/>
    <path fill="#F9F9F9" d="M388.61 413.89 L291.09 958.07 L297.8 959.24 L388.61 413.89"/>
    <path fill="#808081" d="M388.61 413.89 L479.42 -131.46 L472.7 -132.53 L388.61 413.89"/>
    <path fill="#F9F9FA" d="M388.61 413.89 L297.8 959.24 L304.52 960.31 L388.61 413.89"/>
    <path fill="#808081" d="M388.61 413.89 L472.7 -132.53 L465.96 -133.53 L388.61 413.89"/>
    <path fill="#FAFAFA" d="M388.61 413.89 L304.52 960.31 L311.26 961.31 L388.61 413.89"/>
    <path fill="#7F7F80" d="M388.61 413.89 L465.96 -133.53 L459.21 -134.44 L388.61 413.89"/>
    <path fill="#FBFBFB" d="M388.61 413.89 L311.26 961.31 L318.01 962.22 L388.61 413.89"/>
    <path fill="#7F7F80" d="M388.61 413.89 L459.21 -134.44 L452.45 -135.27 L388.61 413.89"/>
    <path fill="#FBFBFB" d="M388.61 413.89 L318.01 962.22 L324.77 963.05 L388.61 413.89"/>
    <path fill="#7E7E7F" d="M388.61 413.89 L452.45 -135.27 L445.68 -136.01 L388.61 413.89"/>
    <path fill="#FCFCFC" d="M388.61 413.89 L324.77 963.05 L331.54 963.79 L388.61 413.89"/>
    <path fill="#7E7E7F" d="M388.61 413.89 L445.68 -136.01 L438.9 -136.67 L388.61 413.89"/>
    <path fill="#FDFDFD" d="M388.61 413.89 L331.54 963.79 L338.32 964.45 L388.61 413.89"/>
    <path fill="#7D7D7E" d="M388.61 413.89 L438.9 -136.67 L432.11 -137.25 L388.61 413.89"/>
    <path fill="#FDFDFD" d="M388.61 413.89 L338.32 964.45 L345.11 965.03 L388.61 413.89"/>
    <path fill="#7D7D7E" d="M388.61 413.89 L432.11 -137.25 L425.32 -137.75 L388.61 413.89"/>
    <path fill="#FEFEFE" d="M388.61 413.89 L345.11 965.03 L351.9 965.53 L388.61 413.89"/>
    <path fill="#7C7C7D" d="M388.61 413.89 L425.32 -137.75 L418.52 -138.16 L388.61 413.89"/>
    <path fill="#FEFEFE" d="M388.61 413.89 L351.9 965.53 L358.7 965.94 L388.61 413.89"/>
   </mask>
 </defs>
 <g id="Capa_x0020_1">
  <metadata id="CorelCorpID_0Corel-Layer"/>
  <circle class="fil0" cx="380.99" cy="380.99" r="381"/>
  <path class="fil1" style="mask:url(#id0)" d="M756.39 315.65c3.67,21.23 5.6,43.06 5.6,65.34 0,210.42 -170.58,381 -381,381 -210.42,0 -381,-170.58 -381,-381 0,-164.51 104.27,-304.66 250.33,-357.99 2.77,-1.05 5.77,-1.63 8.9,-1.63 13.85,0 25.07,11.22 25.07,25.07 0,10.83 -6.88,20.06 -16.5,23.56 -126.99,46.23 -217.67,168.02 -217.67,310.99 0,182.73 148.14,330.87 330.87,330.87 182.73,0 330.87,-148.14 330.87,-330.87 0,-19.67 -1.73,-38.93 -5.02,-57.65l0.01 0 0.01 0c-0.23,-1.35 -0.35,-2.75 -0.35,-4.17 0,-13.84 11.22,-25.06 25.06,-25.06 12.65,0 23.11,9.37 24.82,21.54zm-40.84 -78.36c12.11,0 21.93,9.82 21.93,21.93 0,12.11 -9.82,21.93 -21.93,21.93 -12.11,0 -21.93,-9.82 -21.93,-21.93 0,-12.11 9.82,-21.93 21.93,-21.93zm-26.26 -53.1c10.38,0 18.8,8.42 18.8,18.8 0,10.39 -8.42,18.8 -18.8,18.8 -10.38,0 -18.8,-8.41 -18.8,-18.8 0,-10.38 8.42,-18.8 18.8,-18.8zm-35.63 -47.66c8.65,0 15.67,7.01 15.67,15.67 0,8.65 -7.02,15.66 -15.67,15.66 -8.65,0 -15.67,-7.01 -15.67,-15.66 0,-8.66 7.02,-15.67 15.67,-15.67zm-43.88 -40.74c6.93,0 12.54,5.61 12.54,12.53 0,6.93 -5.61,12.53 -12.54,12.53 -6.92,0 -12.53,-5.6 -12.53,-12.53 0,-6.92 5.61,-12.53 12.53,-12.53zm-50.79 -32.5c5.19,0 9.4,4.21 9.4,9.4 0,5.19 -4.21,9.4 -9.4,9.4 -5.2,0 -9.4,-4.21 -9.4,-9.4 0,-5.19 4.2,-9.4 9.4,-9.4zm-56.23 -23.13c3.46,0 6.27,2.81 6.27,6.27 0,3.46 -2.81,6.27 -6.27,6.27 -3.46,0 -6.27,-2.81 -6.27,-6.27 0,-3.46 2.81,-6.27 6.27,-6.27z"/>
 </g>
</svg>
