<?xml version="1.0" encoding="UTF-8"?>
<!DOCTYPE svg PUBLIC "-//W3C//DTD SVG 1.1//EN" "http://www.w3.org/Graphics/SVG/1.1/DTD/svg11.dtd">
<!-- Creator: CorelDRAW -->
<svg xmlns="http://www.w3.org/2000/svg" xml:space="preserve" width="8.4666mm" height="8.4666mm" version="1.1" style="shape-rendering:geometricPrecision; text-rendering:geometricPrecision; image-rendering:optimizeQuality; fill-rule:evenodd; clip-rule:evenodd"
viewBox="0 0 846.66 846.66"
 xmlns:xlink="http://www.w3.org/1999/xlink"
 xmlns:xodm="http://www.corel.com/coreldraw/odm/2003">
 <defs>
  <style type="text/css">
   <![CDATA[
    .fil0 {fill:#00CCFF;fill-rule:nonzero}
   ]]>
  </style>
 </defs>
 <g id="Capa_x0020_1">
  <metadata id="CorelCorpID_0Corel-Layer"/>
  <path class="fil0" d="M36.83 106.6c-18,0 -32.6,-14.6 -32.6,-32.6 0,-18 14.6,-32.61 32.6,-32.61l158.34 0c16.27,0 29.77,11.94 32.21,27.53 35.29,144.08 69.95,285.62 105.02,428.85l66.44 0 51.38 -242.14 -78.1 0c-17.99,0 -32.6,-14.61 -32.6,-32.61 0,-17.99 14.61,-32.6 32.6,-32.6l437.76 0c2.23,0.05 4.48,0.28 6.75,0.77 17.58,3.73 28.81,21.01 25.08,38.59l-64.78 305.36c-2.31,15.74 -15.87,27.84 -32.25,27.84l-400.96 0 11.89 56.04 1.84 -0.03c25.62,0 48.9,10.45 65.75,27.3l0.1 0.09c9.82,9.83 17.47,21.84 22.13,35.23l75.54 0c4.68,-13.44 12.32,-25.49 22.16,-35.32 16.84,-16.85 40.14,-27.3 65.83,-27.3 25.62,0 48.9,10.45 65.75,27.3l0.1 0.09c16.84,16.86 27.29,40.13 27.29,65.75 0,25.7 -10.45,49 -27.29,65.84 -16.84,16.84 -40.15,27.3 -65.85,27.3 -25.58,0 -48.86,-10.46 -65.74,-27.3l-0.09 -0.1c-8.79,-8.8 -15.83,-19.35 -20.56,-31.05l-78.67 0c-4.73,11.77 -11.79,22.34 -20.6,31.15 -16.84,16.84 -40.15,27.3 -65.85,27.3 -25.59,0 -48.86,-10.46 -65.74,-27.3l-0.1 -0.1c-16.84,-16.87 -27.29,-40.15 -27.29,-65.74 0,-25.69 10.45,-49 27.29,-65.84l2.49 -2.4 -124.39 -537.29 -132.88 0zm601.96 575.71c-7.62,-7.57 -18.17,-12.25 -29.83,-12.25 -11.61,0 -22.16,4.71 -29.75,12.31 -7.6,7.59 -12.32,18.15 -12.32,29.76 0,11.69 4.67,22.22 12.22,29.76l0.1 0.1c7.53,7.55 18.07,12.22 29.75,12.22 11.62,0 22.18,-4.72 29.77,-12.32 7.6,-7.59 12.31,-18.14 12.31,-29.76 0,-11.66 -4.69,-22.21 -12.25,-29.82zm-251.52 0c-7.61,-7.57 -18.16,-12.25 -29.82,-12.25 -11.62,0 -22.17,4.71 -29.76,12.31 -7.6,7.59 -12.32,18.15 -12.32,29.76 0,11.69 4.68,22.22 12.22,29.76l0.1 0.1c7.54,7.55 18.08,12.22 29.76,12.22 11.62,0 22.18,-4.72 29.77,-12.32 7.6,-7.59 12.31,-18.14 12.31,-29.76 0,-11.66 -4.69,-22.21 -12.26,-29.82zm78.12 -184.54l100.81 0 51.38 -242.14 -100.83 0 -51.36 242.14zm167.36 0l85.58 0 51.36 -242.14 -85.58 0 -51.36 242.14z"/>
 </g>
</svg>
