<?xml version="1.0" encoding="UTF-8"?>
<!DOCTYPE svg PUBLIC "-//W3C//DTD SVG 1.1//EN" "http://www.w3.org/Graphics/SVG/1.1/DTD/svg11.dtd">
<!-- Creator: CorelDRAW -->
<svg xmlns="http://www.w3.org/2000/svg" xml:space="preserve" width="8.4666mm" height="8.4666mm" version="1.1" style="shape-rendering:geometricPrecision; text-rendering:geometricPrecision; image-rendering:optimizeQuality; fill-rule:evenodd; clip-rule:evenodd"
viewBox="0 0 846.66 846.66"
 xmlns:xlink="http://www.w3.org/1999/xlink"
 xmlns:xodm="http://www.corel.com/coreldraw/odm/2003">
 <defs>
  <style type="text/css">
   <![CDATA[
    .fil0 {fill:#00CCFF;fill-rule:nonzero}
   ]]>
  </style>
 </defs>
 <g id="Capa_x0020_1">
  <metadata id="CorelCorpID_0Corel-Layer"/>
  <path class="fil0" d="M423.33 4.23c115.7,0 220.5,46.92 296.34,122.76 75.84,75.84 122.76,180.64 122.76,296.34 0,115.7 -46.92,220.5 -122.76,296.34 -75.84,75.84 -180.64,122.76 -296.34,122.76 -115.7,0 -220.5,-46.92 -296.34,-122.76 -75.84,-75.84 -122.76,-180.64 -122.76,-296.34 0,-115.7 46.92,-220.5 122.76,-296.34 75.84,-75.84 180.64,-122.76 296.34,-122.76zm-242.23 469.9c-28.05,0 -50.8,-22.75 -50.8,-50.8 0,-28.05 22.75,-50.8 50.8,-50.8l484.46 0c28.05,0 50.8,22.75 50.8,50.8 0,28.05 -22.75,50.8 -50.8,50.8l-484.46 0zm484.2 -292.77c-61.91,-61.92 -147.47,-100.22 -241.97,-100.22 -94.5,0 -180.06,38.3 -241.97,100.22 -61.92,61.91 -100.22,147.47 -100.22,241.97 0,94.5 38.3,180.06 100.22,241.97 61.91,61.92 147.47,100.22 241.97,100.22 94.5,0 180.06,-38.3 241.97,-100.22 61.92,-61.91 100.22,-147.47 100.22,-241.97 0,-94.5 -38.3,-180.06 -100.22,-241.97z"/>
 </g>
</svg>
