<?xml version="1.0" encoding="UTF-8"?>
<!DOCTYPE svg PUBLIC "-//W3C//DTD SVG 1.1//EN" "http://www.w3.org/Graphics/SVG/1.1/DTD/svg11.dtd">
<!-- Creator: CorelDRAW -->
<svg xmlns="http://www.w3.org/2000/svg" xml:space="preserve" width="14.6472mm" height="8.4666mm" version="1.1" style="shape-rendering:geometricPrecision; text-rendering:geometricPrecision; image-rendering:optimizeQuality; fill-rule:evenodd; clip-rule:evenodd"
viewBox="0 0 1464.72 846.66"
 xmlns:xlink="http://www.w3.org/1999/xlink"
 xmlns:xodm="http://www.corel.com/coreldraw/odm/2003">
 <defs>
  <style type="text/css">
   <![CDATA[
    .fil1 {fill:#00CCFF;fill-rule:nonzero}
    .fil2 {fill:white;fill-rule:nonzero}
    .fil0 {fill:url(#id0)}
   ]]>
  </style>
  <linearGradient id="id0" gradientUnits="userSpaceOnUse" x1="543.76" y1="98.26" x2="912.52" y2="531.74">
   <stop offset="0" style="stop-opacity:1; stop-color:#42AD4E"/>
   <stop offset="0.458824" style="stop-opacity:1; stop-color:#21BCA6"/>
   <stop offset="1" style="stop-opacity:1; stop-color:#00CCFF"/>
  </linearGradient>
 </defs>
 <g id="Capa_x0020_1">
  <metadata id="CorelCorpID_0Corel-Layer"/>
  <g id="_2312932201264">
   <path class="fil0" d="M988.9 621.51l-63.14 -449.41 -395.56 0 -30.09 214.17 102.04 -85.62c-2.85,-5.65 -3.97,-11.88 -3.44,-17.97 0.75,-8.54 4.75,-16.79 11.83,-22.73 7.08,-5.94 15.9,-8.45 24.44,-7.7 8.53,0.74 16.78,4.75 22.72,11.83 5.94,7.08 8.45,15.9 7.71,24.43 -0.75,8.54 -4.75,16.79 -11.83,22.73 -7.08,5.94 -15.9,8.45 -24.44,7.7 -6.09,-0.53 -12.04,-2.72 -17.1,-6.5l-115.13 96.6 -13.28 94.51 254.57 -213.61c-2.85,-5.65 -3.97,-11.88 -3.44,-17.97 0.75,-8.54 4.75,-16.79 11.83,-22.73 7.08,-5.94 15.9,-8.45 24.44,-7.7 8.53,0.74 16.78,4.75 22.72,11.83 5.94,7.08 8.45,15.9 7.71,24.43 -0.75,8.54 -4.75,16.79 -11.83,22.73 -7.08,5.94 -15.91,8.45 -24.44,7.7 -6.09,-0.53 -12.04,-2.72 -17.1,-6.5l-267.66 224.58 -13.04 92.86 236.65 -198.57c-2.85,-5.65 -3.98,-11.88 -3.44,-17.97 0.74,-8.54 4.75,-16.79 11.83,-22.73 7.08,-5.94 15.9,-8.45 24.43,-7.7 8.54,0.74 16.79,4.75 22.73,11.83 5.94,7.08 8.45,15.9 7.7,24.43 -0.74,8.54 -4.74,16.79 -11.83,22.73 -7.08,5.94 -15.9,8.45 -24.43,7.7 -6.09,-0.53 -12.04,-2.72 -17.1,-6.5l-225.4 189.12 101.13 0 252.05 -211.49c-2.84,-5.65 -3.97,-11.89 -3.44,-17.98 0.75,-8.53 4.75,-16.78 11.83,-22.72 7.08,-5.94 15.9,-8.45 24.44,-7.71 8.53,0.75 16.79,4.75 22.73,11.83 5.94,7.08 8.45,15.9 7.7,24.44 -0.75,8.53 -4.75,16.79 -11.83,22.73 -7.08,5.94 -15.9,8.45 -24.44,7.7 -6.09,-0.53 -12.03,-2.72 -17.1,-6.51l-238 199.71 102.44 0 93.8 -78.71c-2.85,-5.64 -3.97,-11.88 -3.44,-17.97 0.75,-8.53 4.75,-16.79 11.83,-22.73 7.08,-5.94 15.9,-8.45 24.44,-7.7 8.53,0.75 16.78,4.75 22.72,11.83 5.94,7.08 8.45,15.9 7.71,24.44 -0.75,8.53 -4.75,16.78 -11.83,22.72 -7.08,5.94 -15.9,8.45 -24.44,7.71 -6.09,-0.54 -12.04,-2.73 -17.1,-6.51l-79.76 66.92 248.93 0zm-260.92 -613.04c36.93,0 70.37,14.98 94.57,39.18 24.2,24.2 39.17,57.64 39.17,94.57 0,6.65 -0.49,13.19 -1.42,19.58l-20.33 0c1.11,-6.36 1.69,-12.9 1.69,-19.58 0,-31.39 -12.73,-59.81 -33.3,-80.38 -20.57,-20.57 -48.99,-33.3 -80.38,-33.3 -31.39,0 -59.82,12.73 -80.39,33.3 -20.57,20.57 -33.29,48.99 -33.29,80.38 0,6.68 0.58,13.22 1.68,19.58l-20.32 0c-0.94,-6.39 -1.43,-12.93 -1.43,-19.58 0,-36.93 14.97,-70.37 39.18,-94.57 24.2,-24.2 57.64,-39.18 94.57,-39.18zm-123.76 190.35c7.41,0 13.42,6.01 13.42,13.42 0,7.41 -6.01,13.42 -13.42,13.42 -7.41,0 -13.42,-6.01 -13.42,-13.42 0,-7.41 6.01,-13.42 13.42,-13.42zm247.51 0c7.41,0 13.42,6.01 13.42,13.42 0,7.41 -6.01,13.42 -13.42,13.42 -7.41,0 -13.42,-6.01 -13.42,-13.42 0,-7.41 6.01,-13.42 13.42,-13.42zm-218.09 68.75c-4.61,-0.4 -9.38,0.96 -13.21,4.17 -3.83,3.21 -5.99,7.67 -6.39,12.28 -0.41,4.61 0.95,9.38 4.16,13.2 3.21,3.83 7.67,6 12.28,6.4 4.61,0.4 9.38,-0.95 13.21,-4.17 3.83,-3.21 5.99,-7.67 6.39,-12.28 0.41,-4.61 -0.95,-9.38 -4.16,-13.2 -3.21,-3.83 -7.67,-5.99 -12.28,-6.4zm136.04 -10.71c-4.61,-0.4 -9.37,0.96 -13.2,4.17 -3.83,3.21 -5.99,7.67 -6.4,12.28 -0.4,4.61 0.96,9.38 4.17,13.2 3.21,3.83 7.67,6 12.28,6.4 4.61,0.4 9.38,-0.95 13.21,-4.17 3.82,-3.21 5.99,-7.67 6.39,-12.28 0.4,-4.61 -0.95,-9.38 -4.16,-13.2 -3.21,-3.83 -7.68,-5.99 -12.29,-6.4zm-34.16 130.66c-4.61,-0.4 -9.38,0.95 -13.2,4.17 -3.83,3.21 -5.99,7.67 -6.4,12.28 -0.4,4.61 0.96,9.38 4.17,13.2 3.21,3.83 7.67,6 12.28,6.4 4.61,0.4 9.38,-0.95 13.2,-4.17 3.83,-3.21 6,-7.67 6.4,-12.28 0.4,-4.61 -0.95,-9.38 -4.16,-13.2 -3.22,-3.83 -7.68,-6 -12.29,-6.4zm137.68 -10.58c-4.61,-0.41 -9.38,0.95 -13.21,4.16 -3.83,3.21 -5.99,7.68 -6.39,12.29 -0.41,4.61 0.95,9.37 4.16,13.2 3.21,3.83 7.67,5.99 12.28,6.4 4.61,0.4 9.38,-0.96 13.21,-4.17 3.83,-3.21 5.99,-7.67 6.39,-12.28 0.41,-4.61 -0.95,-9.38 -4.16,-13.21 -3.21,-3.82 -7.67,-5.99 -12.28,-6.39zm-31.88 132.79c-4.61,-0.41 -9.37,0.95 -13.2,4.16 -3.83,3.21 -5.99,7.67 -6.4,12.28 -0.4,4.61 0.96,9.38 4.17,13.21 3.21,3.83 7.67,5.99 12.28,6.39 4.61,0.41 9.38,-0.95 13.21,-4.16 3.82,-3.21 5.99,-7.67 6.39,-12.28 0.41,-4.61 -0.95,-9.38 -4.16,-13.21 -3.21,-3.83 -7.68,-5.99 -12.29,-6.39z"/>
   <g>
    <path class="fil1" d="M116.45 700.88l-22.82 0 0 134.46 -37.19 0 0 -134.46 -46.72 0 0 -8.63c0.39,-14.34 8.45,-21.52 24.17,-21.54l106.73 0 0 8.63c-0.39,14.34 -8.45,21.52 -24.17,21.54zm460.01 137.32c-19.6,0 -35,-5.48 -46.21,-16.46 -11.21,-10.97 -16.81,-25.9 -16.81,-44.71 0,-19.44 5.8,-34.68 17.44,-45.66 11.64,-10.97 27.39,-16.46 47.18,-16.46 19.52,0 34.84,5.49 45.93,16.46 11.09,10.98 16.66,25.52 16.66,43.58 0,19.52 -5.72,34.96 -17.17,46.28 -11.44,11.33 -27.12,16.97 -47.02,16.97zm0.94 -95.5c-8.59,0 -15.25,2.94 -19.99,8.82 -4.74,5.91 -7.13,14.26 -7.13,25.04 0,22.57 9.13,33.86 27.35,33.86 17.36,0 26.06,-11.6 26.06,-34.76 0,-21.99 -8.78,-32.96 -26.29,-32.96zm-85.67 92.64l-36.18 0 0 -65.33c0,-18.22 -6.5,-27.31 -19.51,-27.31 -6.27,0 -11.45,2.39 -15.48,7.21 -4.08,4.82 -6.12,10.97 -6.12,18.38l0 67.05 -36.25 0 0 -117.57 36.25 0 0 18.62 0.47 0c8.66,-14.34 21.24,-21.48 37.78,-21.48 26.02,0 39.04,16.15 39.04,48.44l0 71.99zm-137.33 -4.23c-8.19,4.74 -20.02,7.09 -35.47,7.09 -18.06,0 -32.68,-5.44 -43.85,-16.42 -11.17,-10.93 -16.77,-25.04 -16.77,-42.36 0,-19.99 5.99,-35.7 17.95,-47.22 11.99,-11.53 28.02,-17.29 48.08,-17.29 13.84,0 23.87,1.84 30.06,5.49l0 30.8c-7.56,-5.68 -16.03,-8.5 -25.35,-8.5 -10.43,0 -18.66,3.02 -24.77,9.13 -6.08,6.07 -9.13,14.46 -9.13,25.2 0,10.38 2.94,18.57 8.74,24.49 5.8,5.96 13.83,8.9 23.98,8.9 9.05,0 17.87,-2.82 26.53,-8.5l0 29.19zm-110.67 -44.21l-76.7 0c1.22,17.05 12,25.6 32.26,25.6 12.93,0 24.29,-3.06 34.09,-9.17l0 26.17c-10.85,5.8 -24.96,8.7 -42.36,8.7 -18.97,0 -33.71,-5.25 -44.21,-15.79 -10.46,-10.5 -15.71,-25.2 -15.71,-44.01 0,-19.52 5.64,-35 17,-46.4 11.33,-11.4 25.24,-17.09 41.78,-17.09 17.13,0 30.41,5.1 39.78,15.25 9.37,10.19 14.07,24.02 14.07,41.46l0 15.28zm-33.63 -22.29c0,-16.82 -6.82,-25.24 -20.45,-25.24 -5.8,0 -10.86,2.39 -15.09,7.21 -4.27,4.82 -6.82,10.85 -7.76,18.03l43.3 0z"/>
    <path class="fil2" d="M824.04 700.88l-22.83 0 0 134.46 -37.19 0 0 -134.46 -46.71 0 0 -8.63c0.39,-14.34 8.44,-21.52 24.16,-21.54l106.73 0 0 8.63c-0.39,14.34 -8.44,21.52 -24.16,21.54zm622.52 134.46l-34.33 0 0 -16.89 -0.47 0c-7.88,13.17 -19.56,19.75 -35.04,19.75 -11.4,0 -20.37,-3.21 -26.92,-9.68 -6.54,-6.46 -9.8,-15.12 -9.8,-25.9 0,-22.81 13.52,-35.98 40.53,-39.5l31.94 -4.24c0,-12.85 -6.98,-19.28 -20.93,-19.28 -13.99,0 -27.32,4.16 -39.94,12.5l0 -27.31c5.06,-2.63 11.96,-4.9 20.73,-6.9 8.74,-2 16.74,-2.98 23.95,-2.98 33.51,0 50.28,16.74 50.28,50.17l0 70.26zm-34.09 -47.77l0 -7.92 -21.36 2.75c-11.8,1.53 -17.68,6.86 -17.68,15.99 0,4.11 1.41,7.52 4.27,10.15 2.9,2.62 6.78,3.96 11.68,3.96 6.82,0 12.35,-2.36 16.66,-7.06 4.27,-4.7 6.43,-10.66 6.43,-17.87zm-94.3 47.77l-36.29 0 0 -16.18 -0.43 0c-8.27,12.7 -20.41,19.04 -36.4,19.04 -14.7,0 -26.54,-5.17 -35.47,-15.55 -8.98,-10.35 -13.44,-24.85 -13.44,-43.47 0,-19.43 4.93,-34.99 14.81,-46.71 9.88,-11.72 22.81,-17.56 38.8,-17.56 15.16,0 25.71,5.41 31.7,16.31l0.43 0 0 -48.37c0.39,-14.34 8.45,-21.52 24.17,-21.55l12.12 0 0 174.04zm-35.58 -57.17l0 -8.86c0,-7.64 -2.24,-13.99 -6.66,-19.05 -4.43,-5.05 -10.23,-7.56 -17.32,-7.56 -8.04,0 -14.35,3.13 -18.86,9.44 -4.5,6.35 -6.78,15.01 -6.78,26.03 0,10.34 2.2,18.3 6.55,23.86 4.39,5.61 10.42,8.39 18.14,8.39 7.37,0 13.37,-2.94 17.99,-8.82 4.63,-5.92 6.94,-13.72 6.94,-23.43zm-108.17 57.17l-36.17 0 0 -65.33c0,-18.22 -6.5,-27.31 -19.52,-27.31 -6.27,0 -11.44,2.39 -15.48,7.21 -4.07,4.82 -6.11,10.97 -6.11,18.38l0 67.05 -36.25 0 0 -117.57 36.25 0 0 18.62 0.47 0c8.66,-14.34 21.24,-21.48 37.78,-21.48 26.02,0 39.03,16.15 39.03,48.44l0 71.99zm-135.13 -48.44l-76.69 0c1.21,17.05 11.99,25.6 32.25,25.6 12.94,0 24.3,-3.06 34.1,-9.17l0 26.17c-10.86,5.8 -24.97,8.7 -42.37,8.7 -18.96,0 -33.7,-5.25 -44.2,-15.79 -10.47,-10.5 -15.72,-25.2 -15.72,-44.01 0,-19.52 5.65,-35 17.01,-46.4 11.33,-11.4 25.24,-17.09 41.78,-17.09 17.12,0 30.41,5.1 39.78,15.25 9.36,10.19 14.06,24.02 14.06,41.46l0 15.28zm-33.62 -22.29c0,-16.82 -6.82,-25.24 -20.46,-25.24 -5.8,0 -10.85,2.39 -15.09,7.21 -4.27,4.82 -6.81,10.85 -7.76,18.03l43.31 0zm-120.47 -65.45c-6.12,0 -11.13,-1.8 -15.01,-5.45 -3.92,-3.64 -5.88,-8.07 -5.88,-13.36 0,-5.45 1.96,-9.88 5.88,-13.33 3.88,-3.45 8.89,-5.17 15.01,-5.17 6.23,0 11.25,1.72 15.13,5.17 3.84,3.45 5.8,7.88 5.8,13.33 0,5.48 -1.96,10.03 -5.8,13.56 -3.88,3.48 -8.9,5.25 -15.13,5.25zm17.91 136.18l-36.25 0 0 -117.57 36.25 0 0 117.57z"/>
   </g>
  </g>
 </g>
</svg>
